<?xml version="1.0" encoding="UTF-8"?>
<svg width="120px" height="150px" viewBox="0 0 120 150" version="1.1" xmlns="http://www.w3.org/2000/svg" xmlns:xlink="http://www.w3.org/1999/xlink">
    <!-- Generator: Sketch 60 (88103) - https://sketch.com -->
    <title>baby-feeding</title>
    <desc>Created with Sketch.</desc>
    <g id="main" stroke="none" stroke-width="1" fill="none" fill-rule="evenodd">
        <g id="Homepage---proposed" transform="translate(-979.000000, -209.000000)" fill-rule="nonzero">
            <g id="nav-card-copy-2" transform="translate(879.000000, 209.000000)">
                <g id="baby-feeding" transform="translate(100.000000, 0.000000)">
                    <path d="M45.5616788,37.040146 C44.8773723,41.6583942 43.8941606,46.1978102 42.8474453,50.7427007 C42.1532847,53.7591241 40.9729927,54.6021898 37.7737226,53.6277372 C36.4313869,53.2182482 36.8386861,52.9357664 35.5313869,53.2215328 C34.3806569,53.4733577 34.3357664,54.7981752 32.8149635,54.0974453 C31.570073,53.5237226 31.6631387,50.9945255 30.6164234,50.5062044 C29.3321168,49.9072993 29.3321168,51.2189781 28.2448905,51.6569343 C26.0310219,52.550365 24.4237226,51.7489051 23.0923358,50.0080292 C21.8091241,48.329562 20.8423358,49.0434307 19.1715328,49.7572993 C17.2390511,50.5839416 16.5952555,49.5766423 15.5583942,48.1708029 C14.4974453,46.7343066 9.11386861,48.479562 10.0040146,45.0536496 C10.3773723,43.6171533 12.9186131,42.8277372 11.8171533,41.0671533 C11.5083942,40.5722628 11.1164234,40.5777372 11.0135036,39.9372263 C10.9379562,39.4653285 11.1427007,38.8543796 11.3419708,38.4306569 C11.7875912,37.4616788 12.7237226,36.9240876 13.4507299,36.220073 C14.1777372,35.5160584 14.8510949,34.7178832 14.8346715,33.609854 C14.8138686,32.1864964 13.420073,31.1605839 13.5208029,29.6682482 C13.630292,28.0456204 14.8970803,27.3624088 15.8605839,26.2565693 C17.8467153,23.9682482 17.8467153,20.7459854 18.0580292,17.9562044 C18.3350365,14.3189781 21.9624088,13.4978102 23.7678832,10.6521898 C24.5989051,9.33832117 23.4514599,8.59708029 24.7007299,7.38065693 C26.109854,6.00875912 28.6423358,5.14270073 30.3624088,4.20547445 C33.0251825,2.75474453 34.700365,1.65985401 37.7791971,1.23284672 C40.6127737,0.838686131 43.5722628,1.28868613 45.9908759,2.86642336 C48.479562,4.48905109 48.2846715,2.1229927 48.0328467,4.8350365 C47.7328467,8.09781022 47.7514599,11.1131387 47.7580292,14.4284672 C47.7744526,22.0160584 46.6718978,29.5521898 45.5616788,37.040146 Z" id="Path" fill="#1A172E"></path>
                    <path d="M50.7536496,14.489781 C51.6802369,13.7170547 52.7153919,13.0847469 53.8259124,12.6131387 C56.4251825,11.5182482 60.0667883,13.1945255 62.2565693,14.5948905 C64.369708,15.9437956 66.699635,17.460219 68.189781,19.5284672 C69.679927,21.5967153 70.470438,24.7248175 70.470438,27.2540146 C70.470438,27.9492701 70.2613139,29.0244526 70.470438,29.690146 C70.8405109,30.8835766 71.6835766,31.3248175 71.3923358,32.7558394 C71.1120438,34.1244526 69.779562,35.1284672 69.7193431,36.5726277 C69.6722628,37.6675182 70.579927,38.2478102 70.4857664,39.2912409 C70.3182482,41.0364964 68.4383212,42.4970803 69.5660584,44.4142336 C69.740146,44.7109489 70.3576642,44.5916058 70.5186131,44.9682482 C70.8624088,45.7762774 69.7521898,46.379562 69.8507299,47.2313869 C69.9525547,48.1434307 70.6237226,48.4226277 70.0259124,49.3784672 C69.2594891,50.5981752 68.5948905,49.5284672 67.6478102,50.55 C65.7864964,52.5645985 65.2456204,50.8543796 62.9113139,51.0361314 C61.3182482,51.1609489 60.9788321,52.4890511 59.4821168,52.5416058 C57.6273723,52.6083942 57.9339416,52.0675182 56.4164234,53.0945255 C54.7806569,54.200365 50.2850365,53.3080292 48.4817518,52.5788321 C43.850365,50.709854 45.7226277,44.5773723 45.8069343,40.8273723 C45.9021898,36.5791971 46.2317518,32.1350365 45.6569343,27.9076642 C44.9770073,22.9664234 46.95,17.6463504 50.7536496,14.489781 Z" id="Path" fill="#1A172E"></path>
                    <path d="M46.0423358,86.0638686 C39.0963504,86.5883212 32.6551095,83.8489051 28.3587591,78.3536496 C25.9620438,75.2879562 16.3905109,67.0762774 20.9638686,67.0762774 C22.069708,67.0762774 27.4029197,66.2529197 29.8029197,65.3430657 C32.6277372,64.270073 34.4890511,61.2733577 35.310219,58.3916058 C35.7004399,57.0293223 35.8668394,55.6127085 35.8029197,54.1970803 C35.6934307,52.05 35.419708,51.0635036 35.1251825,49.4518248 C35.0507299,49.0478102 34.6773723,48.7510949 34.5492701,48.3919708 C34.2328467,47.5248175 33.8649635,46.7354015 33.9722628,45.75 C33.9722628,45.75 33.9722628,45.7390511 33.9722628,45.7346715 C34.1857664,43.7638686 34.4463504,42.210219 35.9781022,40.8076642 C37.079562,39.7981752 38.7908759,38.9846715 40.3138686,38.8642336 C41.2368613,38.7919708 41.4777372,39.2288321 42.0963504,39.7467153 C42.7149635,40.2645985 43.2930657,40.4266423 43.9576642,40.8087591 C43.9740876,40.8186131 43.9916058,40.8273723 44.0080292,40.8383212 C45.4313869,41.6737226 46.7452555,43.0182482 47.9211679,44.3178832 C47.9211679,44.3178832 47.9211679,44.3244526 47.9288321,44.3255474 C48.2890511,44.7251825 48.6339416,45.1182482 48.9667883,45.4927007 C51.2321168,48.0481752 53.0945255,51.2583942 52.850365,54.9021898 C52.7178832,56.8729927 52.6894161,58.6708029 53.0507299,59.719708 C53.1652071,60.0600394 53.3222946,60.384515 53.5182482,60.6854015 C53.530292,60.7062044 53.5434307,60.7259124 53.5554745,60.7434307 C56.1317518,64.5372263 63.5671533,60.2857664 63.8759124,63.6864964 C64.2755474,68.0485401 67.05,84.479562 46.0423358,86.0638686 Z" id="Path" fill="#C17655"></path>
                    <path d="M13.0489051,88.2624088 C12.1237226,92.3583942 6.70729927,102.003285 6.70729927,102.003285 C6.70729927,102.003285 6.74671533,103.129927 6.83978102,104.925547 C7.04014599,108.765328 7.48138686,115.668613 8.29270073,121.160584 C8.74817518,124.248175 9.18394161,128.540146 9.53321168,132.810219 C9.61094891,133.771533 9.68540146,134.731752 9.75218978,135.676642 C12.4543796,134.265328 15.290146,133.091606 18.1193431,131.985766 C25.659854,129.040511 33.3142336,126.436861 41.3091241,125.035401 C52.1846715,123.128102 63.4412409,122.790876 74.3627737,124.440876 C74.3627737,124.273358 74.3551095,124.105839 74.349635,123.938321 C73.9532847,110.593796 75.5386861,107.422993 76.3313869,103.855839 C76.7321168,102.059124 77.4317518,99.3240876 78.0832117,96.7631387 C78.7237226,94.2448905 79.3094891,91.889781 79.5065693,90.7762774 C79.591771,90.2034901 79.643683,89.6262436 79.6620438,89.0474453 C79.8284672,86.2270073 79.8744526,83.3967153 79.9248175,80.5718978 C79.9620438,78.4248175 80.2620438,76.2886861 80.289835,74.1569343 C80.3036496,73.0521898 79.9521898,71.8576642 79.6970803,70.7846715 C78.4927007,65.7032847 73.9861314,61.8065693 68.8916058,61.0291971 C65.6069343,60.5266423 62.4919708,61.3992701 59.2839416,61.9335766 C58.6817518,62.0343066 57.8463504,61.2109489 57.3777372,61.7824818 C56.9233577,62.329927 58.5306569,63.7423358 58.7813869,66.5540146 C59.1886861,71.1153285 58.2711679,74.1021898 54.9645985,77.1 C51.8430657,79.930292 43.2755474,80.3178832 38.3222628,77.5970803 C34.9357664,75.7357664 31.8864964,73.2175182 29.6726277,70.0313869 C29.0375912,69.1193431 28.6357664,67.9817518 28.219708,66.9569343 C27.9667883,66.3339416 28.0751825,65.5335766 27.7029197,65.0474453 C26.7624088,63.8145985 25.1124088,65.4514599 23.9364964,65.8762774 C19.3379562,67.5339416 18.4083942,66.1467153 16.1770073,67.3828467 C14.8543796,68.1153285 14.3047445,69.6689781 14.0145985,71.0080292 C13.3313869,74.1547445 13.6708029,77.2729927 13.3576642,80.4350365 C13.100365,83.0135036 13.6270073,85.7014599 13.0489051,88.2624088 Z" id="Path" fill="#42ACE1"></path>
                    <path d="M85.1080292,125.405474 C84.5923358,126.093066 76.3489051,134.853285 71.1930657,137.602555 C69.0032847,138.767518 66.7937956,141.215693 64.449635,141.802555 C63.050365,142.15292 61.1091241,141.774088 59.6846715,141.711679 C55.8262774,141.541971 51.8014599,141.453285 48.0032847,140.693431 C44.5686131,140.006934 43.5372263,136.914964 43.5372263,136.914964 L45.0832117,129.013139 C45.0832117,129.013139 52.6379562,120.423723 53.3288321,120.423723 C54.019708,120.423723 67.2427007,116.987956 67.2427007,116.987956 L78.9240876,120.251825 L85.1080292,125.405474 Z" id="Path" fill="#677A00"></path>
                    <path d="M109.671898,118.019343 C109.619395,118.483614 109.540804,118.944562 109.436496,119.4 C109.417883,119.487591 109.39927,119.578467 109.378467,119.673723 C109.348905,119.809489 109.316058,119.95292 109.282117,120.111679 C109.248175,120.270438 109.201095,120.458759 109.155109,120.643796 C108.411679,123.662409 106.866788,128.260949 104.519343,128.846715 C104.436131,128.867518 104.329927,128.886131 104.204015,128.904745 C103.766058,128.968248 103.067518,129.014234 102.158759,129.04927 C96.4894161,129.260584 82.6062044,128.920073 71.5751825,128.357299 L70.1343066,128.279562 C65.3036496,128.016788 61.1463504,127.711314 58.6642336,127.393796 C57.5463504,127.24927 56.7678832,127.102555 56.4208029,126.955839 C54.4817518,126.137956 58.6708029,122.773358 62.3879562,120.177372 C63.0448905,119.720803 63.6821168,119.287226 64.2711679,118.897445 C65.9660584,117.770803 67.2427007,116.992336 67.2427007,116.992336 L79.7824818,111.839781 L92.1043796,111.155474 L92.150365,111.155474 L103.831752,113.389051 L108.967883,117.468613 L109.671898,118.019343 Z" id="Path" fill="#CA8161"></path>
                    <path d="M109.436496,119.4 C109.417883,119.487591 109.39927,119.578467 109.378467,119.673723 C109.348905,119.809489 109.316058,119.95292 109.282117,120.111679 C109.248175,120.270438 109.201095,120.458759 109.155109,120.643796 C108.411679,123.662409 106.866788,128.260949 104.519343,128.846715 C104.436131,128.867518 104.329927,128.886131 104.204015,128.904745 C103.766058,128.968248 103.067518,129.014234 102.158759,129.04927 C102.826642,127.214234 103.744161,125.193066 103.659854,122.15146 C103.565693,118.733212 101.483212,115.882117 100.45292,115.279927 C99.4226277,114.677737 96.4532847,113.672628 95.7580292,114.020803 C95.5291971,114.130292 94.5536496,115.910584 93.1817518,116.710949 C92.5182482,117.099635 92.4448905,116.439416 91.8678832,117.054745 C90.9525547,118.029197 88.7485401,118.543796 87.6317518,118.368613 C86.5149635,118.193431 84.7686131,117.767518 82.7047445,119.572993 C80.6408759,121.378467 78.1532847,120.777372 76.0916058,121.118978 C74.029927,121.460584 75.8343066,122.922263 73.4288321,123.952555 C72.2627737,124.455109 71.6835766,126.543066 71.5773723,128.359489 L70.1364964,128.281752 C65.3058394,128.018978 61.1485401,127.713504 58.6664234,127.395985 C59.0080292,126.301095 61.4321168,121.90073 62.3890511,120.180657 C62.629927,119.74927 62.7777372,119.486496 62.7777372,119.486496 L64.2722628,118.90073 L77.8937956,113.560949 C77.8937956,113.560949 91.1638686,111.267153 92.1054745,111.158759 L92.1514599,111.158759 L101.341971,111.158759 C101.857664,111.158759 108.213504,114.333942 108.213504,114.333942 L108.968978,117.468613 L109.436496,119.4 Z" id="Path" fill="#C17655"></path>
                    <path d="M119.807299,119.049635 C118.94781,121.625912 110.874088,131.073723 110.359489,133.651095 C109.812044,136.371898 107.439416,137.264234 106.923723,135.711679 C106.533942,134.542336 106.60292,128.304745 106.386131,124.336861 C106.317153,123.059124 106.217518,122.016788 106.065328,121.455109 C105.033942,117.675547 100.911679,114.927372 99.3656934,114.411679 C98.8565693,114.241971 97.8832117,114.071168 96.8113139,113.841241 C96.4127737,113.755839 96,113.660584 95.5927007,113.55438 L95.5729927,113.548905 C93.7565693,113.074818 92.0562044,112.367518 92.150365,111.14781 C92.1734724,110.903896 92.212608,110.661767 92.2675182,110.422993 C92.3671533,109.95438 92.5215328,109.383942 92.7142336,108.756569 C92.8708029,108.245255 93.0492701,107.69562 93.2419708,107.131752 C94.270073,104.105474 95.6507299,100.688321 95.6507299,100.688321 L107.609124,95.5160584 L108.983212,97.2339416 C108.983212,97.2339416 109.778102,97.6861314 110.868613,98.3846715 C111.279197,98.6474453 111.733577,98.9463504 112.20219,99.2715328 C113.996715,100.506569 116.009124,102.09635 116.713139,103.417883 C118.042336,105.909854 116.477737,108.243066 117.463139,110.257664 C117.495985,110.326642 117.532117,110.393431 117.572628,110.460219 C118.775912,112.521898 120.665693,116.473358 119.807299,119.049635 Z" id="Path" fill="#92AE00"></path>
                    <path d="M111.332847,104.392336 C110.072628,105.535401 108.469708,109.086131 107.667153,109.888686 C106.864599,110.691241 101.013504,112.613869 99.7948905,112.393796 C98.2916058,112.122263 94.0828467,111.14781 93.9109489,111.062409 C93.7390511,110.977007 99.0788321,108.858394 99.4226277,108.743431 C99.7664234,108.628467 106.522993,103.589781 106.522993,103.589781 C106.522993,103.589781 108.125912,100.268978 108.240876,99.810219 C108.312044,99.5288321 109.761679,98.8609489 110.868613,98.3868613 C111.279197,98.649635 111.733577,98.9485401 112.20219,99.2737226 C112.24927,100.948905 112.178102,103.623723 111.332847,104.392336 Z" id="Path" fill="#859D00"></path>
                    <path d="M53.5587591,60.7456204 C52.2032847,63.0843066 50.8083942,65.6441606 48.1215328,65.8729927 C46.8076642,65.9824818 45.0930657,66.0536496 44.2051095,65.8729927 C42.3952555,65.5051095 40.9981752,64.1737226 39.0821168,62.259854 C37.5361314,60.7116788 37.1978102,60.4489051 35.8029197,58.9423358 C35.7963504,58.9368613 35.55,58.6894161 35.3091241,58.3948905 C35.7000685,57.0316153 35.8668412,55.6138621 35.8029197,54.1970803 C35.6934307,52.05 35.419708,51.0635036 35.1251825,49.4518248 C35.0507299,49.0478102 34.6773723,48.7510949 34.5492701,48.3919708 C34.3510949,47.5390511 34.1266423,46.640146 33.9744526,45.7346715 C33.6142336,43.6062044 33.6580292,41.499635 35.4032847,40.1649635 C36.6689781,39.1959854 38.7361314,38.2390511 40.3576642,38.3474453 C41.3978102,38.4175182 41.8171533,39.0394161 42.5594891,39.6722628 C43.0182482,40.0642336 43.4879562,40.4386861 43.959854,40.8076642 C44.6616788,41.3605839 45.3635036,41.9135036 46.0281022,42.520073 C46.6248175,43.0675182 47.269708,43.6664234 47.9233577,44.3167883 C47.9233577,44.3167883 47.9233577,44.3233577 47.9310219,44.3244526 C48.2912409,44.7240876 48.6361314,45.1171533 48.9689781,45.4916058 C51.2343066,48.0470803 53.2970803,51.0065693 53.0529197,54.6492701 C52.920438,56.620073 52.8010949,57.9120438 53.0529197,59.4667883 C53.1377329,59.8964505 53.2958819,60.3083046 53.520438,60.6843066 C53.5335766,60.7083942 53.5467153,60.7281022 53.5587591,60.7456204 Z" id="Path" fill="#C67754"></path>
                    <path d="M65.4076642,62.6343066 C68.1733577,64.6160584 69.8748175,82.1660584 73.6828467,94.7145985 C74.6113139,97.7726277 75.6985401,100.328102 78.7259124,101.955109 C81.7916058,103.597445 84.0306569,102.593431 86.4766423,100.576642 C89.1864964,98.3419708 93.9164234,98.1339416 94.4343066,94.4682482 C95.0912409,89.8160584 90.7576642,83.7153285 88.2076642,78.9 C86.8489051,76.3346715 85.4047445,73.5164234 83.7886861,71.0660584 C81.9667883,68.3047445 79.6510949,65.9605839 77.000365,63.9886861 C75.3273723,62.7448905 71.0343066,60.8211679 66.7149635,61.2229927 C65.3791971,61.3521898 63.6810219,61.3948905 65.4076642,62.6343066 Z" id="Path" fill="#42ACE1"></path>
                    <path d="M1.37846715,101.805109 C1.31934307,100.593066 1.08613139,94.879927 1.07737226,93.6689781 C1.04781022,89.6967153 0.0591240876,84.1565693 4.24160584,81.7675182 C5.2959854,81.1642336 6.60109489,81.329562 13.9281022,83.0813869 C21.7291971,84.9427007 19.6653285,96.329562 21.0930657,105.873723 C22.2284672,113.470073 27.8474453,119.039781 26.0375912,123.972263 C24.7905109,127.374088 21.309854,130.155109 17.2543796,132.348175 C13.9379562,134.140511 10.4978102,137.508394 7.77043796,133.745255 C4.69270073,129.495985 3.90766423,124.641241 3.03613139,119.582847 C2.28284672,115.213139 1.66861314,107.729562 1.37846715,101.805109 Z" id="Path" fill="#C17655"></path>
                    <path d="M77.6649635,98.3211679 C77.6649635,98.3211679 74.9441606,101.327737 74.7153285,106.252555 C74.6529197,107.590511 74.5554745,109.306204 74.4251825,111.106204 C74.2992701,112.835036 74.1448905,114.640511 73.9631387,116.266423 C73.7879562,117.832117 73.5864964,119.222628 73.3653285,120.231022 C73.1726277,121.106934 72.9635036,121.674088 72.740146,121.79781 C72.7328525,121.80117 72.725888,121.805202 72.7193431,121.809854 C71.6408759,122.403285 66.2014599,125.018978 64.6094891,127.174818 C63.0175182,129.330657 58.9970803,129.466423 57.3952555,128.892701 C56.9408759,128.730657 56.5620438,128.386861 56.2270073,128.035401 C55.620438,127.398175 55.1594891,126.737956 54.6777372,127.095985 C54.4828467,127.239416 54.2857664,127.54927 54.0722628,128.092336 C53.0419708,130.720073 52.3543796,134.618978 50.7525547,136.794526 C49.1507299,138.970073 40.1014599,143.321168 35.2916058,145.49781 C30.4817518,147.674453 24.4160584,150.656934 23.1525547,149.741606 C22.4616788,149.237956 21.6,148.116788 20.7711679,147.204745 C20.090146,146.45365 19.4332117,145.84708 18.9164234,145.84708 C18.7615054,145.851488 18.6075936,145.873528 18.4576642,145.912774 C17.119708,146.228102 14.7021898,147.561679 13.9905109,146.64854 C11.3386861,143.234672 13.1310219,138.259489 14.2565693,134.635401 C14.8751825,132.644891 15.4959854,130.655474 16.139781,128.673723 C16.3872263,127.907299 16.6062044,126.285766 17.1985401,125.692336 C17.5423358,125.347445 30.7105839,94.8854015 30.7105839,94.8854015 C30.7105839,94.8854015 39.3,88.9313869 39.6427007,88.9313869 C39.9854015,88.9313869 47.1974453,88.4726277 48.8058394,88.5886861 C49.8087591,88.659854 50.8105839,88.8645985 51.6448905,88.9248175 C52.1452555,88.9609489 52.5854015,88.9456204 52.9281022,88.8153285 C53.1656934,88.7266423 53.6485401,88.5459854 54.2857664,88.3324818 C56.1153285,87.7215328 59.2259124,86.8434307 61.5175182,87.0974453 C64.6094891,87.4412409 73.770438,88.8153285 74.4580292,89.8467153 C75.1456204,90.8781022 78.9240876,89.9562044 79.1518248,90.4182482 C79.379562,90.880292 77.6649635,98.3211679 77.6649635,98.3211679 Z" id="Path" fill="#86A000"></path>
                    <path d="M83.8193431,116.902555 C83.5078186,117.194294 83.1787367,117.466701 82.8339416,117.718248 C82.7178832,117.805839 82.5919708,117.896715 82.4583942,117.991971 C81.2332117,118.840511 79.2974453,119.892701 77.1240876,119.994526 C76.1211679,120.040511 75.2266423,120.104015 74.4459854,120.155474 C74.0583942,120.183942 73.699635,120.209124 73.369708,120.231022 C73.1682482,120.247445 72.979927,120.259489 72.8025547,120.269343 C71.6978102,120.338321 71.029927,120.341606 70.8547445,120.166423 C70.6357664,119.947445 71.5226277,116.450365 72.2222628,113.832482 C72.6459854,112.240511 73.0018248,110.975912 73.0018248,110.975912 L73.330292,111.006569 L73.5416058,111.026277 L74.4262774,111.106204 L76.7781022,111.325182 L82.2437956,115.657664 L83.8193431,116.902555 Z" id="Path" fill="#86A000"></path>
                    <path d="M96.0153285,112.608394 C95.8877274,112.930135 95.7414943,113.244171 95.5773723,113.548905 C94.4430657,115.74854 93.3536496,116.25438 92.670438,116.558759 C92.5412409,116.615693 92.3255474,116.537956 92.0485401,116.368248 C91.5810219,116.083577 90.9437956,115.532847 90.290146,114.927372 L90.290146,114.927372 C88.9981752,113.730657 87.6328467,112.314964 87.3470803,112.266788 C86.9167883,112.194526 83.5390511,108.395255 82.4463504,107.155839 L82.4463504,107.155839 L82.1091241,106.770438 L82.3675182,106.49781 L82.3675182,106.49781 L82.5328467,106.320438 L85.0281022,103.678467 C85.0281022,103.678467 90.7828467,103.850365 91.0412409,104.108759 C91.1934307,104.260949 92.339781,105.860584 93.2485401,107.135036 C93.8748175,108.010949 94.3905109,108.746715 94.3905109,108.746715 C94.3905109,108.746715 96.5310219,111.262774 96.0153285,112.608394 Z" id="Path" fill="#8FAC00"></path>
                    <path d="M92.4678832,115.859124 C92.3537127,116.049646 92.2107852,116.221381 92.0441606,116.368248 C91.7759001,116.635527 91.4825818,116.876414 91.1682482,117.087591 C90.1284326,117.797386 88.8563491,118.082204 87.6131387,117.883577 C87.4358263,117.85422 87.2606321,117.813256 87.0886861,117.760949 C86.2905109,117.522263 84.7489051,117.74562 82.8350365,117.718248 C82.6839416,117.718248 81.849635,116.951825 81.6875912,116.945255 C80.6375912,116.905839 78.8332117,116.918978 77.6452555,116.593796 C76.4572993,116.268613 76.550365,116.366058 75.3218978,115.528467 C74.6444717,115.061068 74.0173892,114.524617 73.4507299,113.927737 C73.4507299,113.740511 73.0718978,113.441606 73.0751825,113.25438 C73.0850365,112.474818 72.8014599,111.721533 72.8485401,110.944161 C72.9580292,109.168248 73.1419708,107.343066 73.3510949,105.596715 C73.5886861,103.625912 74.7175182,101.152555 75.9974453,99.3788321 C76.0291971,99.3350365 76.0620438,99.290146 76.0948905,99.2474453 C76.6105839,101.280657 77.010219,102.928467 79.0149635,104.190876 L79.2339416,104.327737 C80.1032847,104.875182 81.3142336,105.616423 82.5339416,106.317153 C83.220438,106.712409 83.9145985,107.092336 84.5551095,107.418613 C85.9521898,108.124818 87.1051095,108.569343 87.4346715,108.313139 C87.5006707,108.262369 87.5542188,108.197212 87.5912409,108.122628 C87.9689781,107.382482 86.8708029,105.814599 88.1211679,106.595255 C88.6412409,106.923723 89.0091241,108.287956 89.1832117,108.813504 C89.419708,109.526277 89.5937956,110.271898 89.5708029,111.016423 C89.55,111.722628 89.6474453,112.420073 90.0448905,113.038686 C90.309854,113.452555 90.8113139,113.687956 91.2131387,113.94854 C91.6423358,114.226642 92.0956204,114.581387 92.3616788,115.025912 C92.5708029,115.387226 92.5839416,115.631387 92.4678832,115.859124 Z" id="Path" fill="#8DA800"></path>
                    <path d="M76.2613139,97.3193431 C76.2613139,97.3193431 74.3715328,90.6208029 78.1510949,88.3872263 C81.9306569,86.1536496 82.0160584,87.270438 83.9058394,85.9784672 C85.7956204,84.6864964 86.1667883,83.4010949 89.6890511,82.6281022 C93.2113139,81.8551095 95.1010949,81.8014599 98.1963504,82.4824818 C102.490511,83.4273723 105.814599,84.9755474 108.29781,94.3072993 C110.788686,103.668613 101.794161,108.898905 99.4751825,110.014599 C97.1562044,111.130292 92.3222628,109.337956 88.1135036,108.043796 C83.9047445,106.749635 77.2062044,101.528102 76.2613139,97.3193431 Z" id="Path" fill="#CA8161"></path>
                    <path d="M77.8970803,99.1237226 C77.8970803,99.1237226 76.9510949,96.9525547 77.7875912,96.5463504 C78.6240876,96.140146 77.9594891,95.5729927 78.9919708,95.0583942 C80.0244526,94.5437956 80.8248175,94.6576642 80.8248175,94.6576642 C80.8248175,94.6576642 80.7667883,93.1686131 79.7934307,93.1105839 C78.820073,93.0525547 78.2375912,92.7963504 77.8368613,92.9682482 C77.4361314,93.140146 75.7565693,93.1105839 75.5562044,94.6576642 C75.4482108,95.6029715 75.7025174,96.5540784 76.2678832,97.3193431 L77.6748175,99.5813869 L77.8970803,99.1237226 Z" id="Path" fill="#AC5E3B"></path>
                    <path d="M79.8689781,93.5408759 C79.7783988,93.9178178 79.9399939,94.3103259 80.269708,94.5142336 C80.8423358,94.8864964 81.7872263,94.7715328 82.2164234,94.5142336 C82.6456204,94.2569343 83.1032847,94.5142336 83.1328467,94.8 C83.1624088,95.0857664 83.9627737,95.7164234 84.1062044,95.2587591 C84.249635,94.8010949 83.5905109,93.9985401 83.1328467,93.9985401 C82.6751825,93.9985401 82.6171533,93.769708 82.6456204,93.4510949 C82.6740876,93.1324818 82.7025547,91.3324818 81.1281022,91.9335766 C79.7441606,92.4656934 79.6390511,92.910219 79.8689781,93.5408759 Z" id="Path" fill="#AC5E3B"></path>
                    <path d="M95.8981752,81.7478102 C95.7051505,81.772362 95.5099147,81.7239435 95.3507299,81.6120438 C95.2510949,81.5419708 95.1974453,81.4226277 95.0791971,81.379927 C94.9827826,81.3386462 94.8711326,81.357599 94.7937415,81.4283836 C94.7163503,81.4991682 94.6875364,81.6086885 94.720073,81.7083942 C94.7923358,81.9569343 95.0791971,82.170438 95.2675182,82.3259124 C95.7054745,82.6883212 96.2529197,82.9445255 96.670073,83.3244526 C96.8145985,83.4547445 96.8266423,83.7832117 96.9985401,83.970438 C97.170438,84.1576642 97.4781022,84.2682482 97.6784672,84.3952555 C98.1021898,84.6645985 98.7218978,84.9010949 98.6145985,85.480292 C96.7215328,85.5416058 98.5324818,87.0131387 99.4007299,87.4062044 C99.960219,87.6580292 100.682847,87.8091241 101.193066,88.129927 C101.944161,88.6018248 102.931752,89.6540146 101.717518,89.6715328 C100.99927,89.9113139 104.184307,91.2963504 103.490146,91.5218978 C103.181387,91.6226277 102.614234,91.1364964 102.672263,91.9237226 C102.691971,92.1821168 103.068613,92.4711679 103.236131,92.6364964 C103.498905,92.8959854 104.378102,93.3262774 104.061679,93.3689781 C102.660219,93.4434307 104.219343,95.2609489 104.026642,95.8587591 C103.716788,96.8211679 101.647445,96.2967153 102.366788,97.5645985 C102.617518,97.9642336 101.224818,97.2 100.741971,97.3138686 C100.063139,97.4737226 100.161679,98.0726277 99.9755474,98.5182482 C99.6164234,99.3755474 98.980292,100.173723 97.9762774,99.9153285 C97.5,99.7927007 97.3839416,99.3678832 96.7894161,99.6109489 C96.3667883,99.7850365 96.0317518,100.414599 95.6572993,100.683942 C94.9029197,101.231387 93.8178832,101.981387 92.2839416,101.824818 C91.4562044,102.582482 94.1737226,103.542701 95.5051095,103.757299 C96.2343066,103.874453 96.4478102,104.255474 96.3208029,104.572993 C96.1467153,105.010949 96.0678832,105.04708 95.9321168,105.475182 C95.5872263,106.554745 94.7956204,107.108759 93.7007299,107.135036 C91.2919708,107.193066 88.6642336,103.814234 89.0627737,105.360219 C89.5609489,107.280657 87.9930657,107.090146 88.8339416,107.707664 C90.0032847,108.567153 93.9131387,110.726277 95.2467153,111 C96.9656934,111.352555 98.300365,110.918978 99.8956204,110.626642 C99.8266423,110.79635 99.169708,111.174088 99.7489051,111.292336 C101.345255,111.315328 102.555109,110.883942 103.779197,110.341971 C104.874088,109.856934 105.037226,109.260219 105.640511,108.39635 C105.89781,110.011314 107.90365,107.556569 108.238686,106.989416 C108.889051,105.886861 109.005109,104.645255 109.367518,103.5 C110.540146,103.95219 111.557299,99.7905109 111.557299,98.9474453 C111.569343,97.7967153 111.843066,96.3284672 111.3,95.2970803 C111.041606,95.0321168 110.947445,95.4153285 110.891606,95.5051095 C110.040876,93.0810219 110.344161,88.6138686 107.755839,87.0240876 C107.915693,87.1675182 108.164234,87.1587591 108.208029,86.9660584 C108.014234,86.1492701 106.565693,85.3576642 106.007299,84.8014599 C105.375547,84.1784672 104.659489,83.5817518 103.770438,83.429562 C103.004015,83.2981752 102.691971,83.7963504 101.990146,82.9981752 C101.426277,82.3565693 101.121898,82.0489051 100.628102,81.8551095 C100.518613,81.8135036 100.233942,81.7587591 100.149635,81.8726277 C100.065328,81.9864964 100.342336,82.2120438 100.078467,82.139781 C99.919267,82.0796142 99.7666462,82.0033038 99.6229927,81.9120438 C99.1493334,81.6471592 98.6519056,81.4272206 98.1372263,81.2551095 C97.529562,81.0711679 96.1959854,80.7908759 96.1182482,81.2551095 C96.3591241,81.7740876 96.1072993,81.7072993 95.8981752,81.7478102 Z" id="Path" fill="#1A172E"></path>
                    <path d="M94.6412409,103.460584 C94.6412409,103.460584 97.05,103.241606 98.0770073,104.878467 C99.0229927,106.375182 99.0536496,108.693066 95.2423358,108.399635 C92.4514599,108.180657 90.8627737,107.025547 90.4324818,105.04927 C90.0021898,103.072993 92.4514599,103.116788 94.6412409,103.460584 Z" id="Path" fill="#C17655"></path>
                    <path d="M92.7514599,105.264964 C92.7514599,105.264964 93.4390511,106.208759 94.4693431,106.208759 C95.499635,106.208759 95.7580292,105.00438 94.8131387,105.093066 C93.8682482,105.181752 91.8930657,103.976277 92.7514599,105.264964 Z" id="Path" fill="#AC5E3B"></path>
                    <path d="M92.6660584,91.679562 C92.6660584,91.679562 93.6963504,93.9131387 92.9529197,94.0270073 C92.2094891,94.1408759 90.8912409,91.679562 91.120073,91.05 C91.3489051,90.420438 92.2083942,90.7062044 92.6660584,91.679562 Z" id="Path" fill="#663B24"></path>
                    <path d="M87.0766423,86.370438 C87.0766423,86.370438 88.3686131,87.3492701 88.6171533,87.1368613 C88.8656934,86.9244526 88.7824818,85.9434307 87.7916058,85.4518248 C86.8007299,84.960219 86.3518248,85.2043796 86.3452555,85.5525547 C86.3419708,85.7583942 86.6408759,86.1021898 87.0766423,86.370438 Z" id="Path" fill="#663B24"></path>
                    <path d="M83.8412409,90.5135036 C83.8412409,90.5135036 83.5193431,91.2 83.9507299,91.8010949 C84.3821168,92.4021898 84.960219,92.4240876 84.9361314,92.6770073 C84.909854,92.9956204 83.8839416,93.1062044 83.3682482,92.1405109 C82.8525547,91.1748175 82.8963504,90.2726277 83.3474453,90.060219 C83.9627737,89.7689781 83.8620438,90.4270073 83.8412409,90.5135036 Z" id="Path" fill="#AC5E3B"></path>
                    <path d="M88.7726277,105.822263 C87.0372263,104.190876 82.1014599,103.332482 79.5251825,100.927007 C76.9489051,98.5215328 76.1047445,95.7394161 76.0040146,95.1722628 C75.5737226,92.7635036 75.319708,94.8109489 75.3164234,94.7430657 C74.5062044,96.650365 75.520073,98.5894161 76.1923358,100.667518 C76.6045179,101.910703 77.1847063,103.091709 77.9167883,104.177737 C80.3616788,105.836496 85.7091241,108.374453 87.8014599,108.972263 C89.4043796,109.429927 92.639781,110.724088 92.4678832,109.344526 C92.4656934,109.344526 91.6642336,108.543066 88.7726277,105.822263 Z" id="Path" fill="#8DA800"></path>
                    <path d="M96.6164234,111.778467 C96.6564908,111.865007 96.6855496,111.95623 96.7029197,112.05 C96.7916058,112.529562 97.0248175,113.381387 96.7970803,113.830292 C96.3908496,113.760551 95.9887782,113.66844 95.5927007,113.55438 L95.5927007,113.497445 C95.649635,112.889781 95.5740876,112.293066 95.1547445,112.007299 C94.2788321,111.422628 93.319708,110.683577 92.2653285,110.422993 C92.1063605,110.382778 91.9445889,110.354596 91.7813869,110.338686 C90.9875912,110.263139 90.1576642,110.571898 89.3726277,110.364964 C88.9948905,110.263139 87.529927,109.39927 88.3664234,108.94927 C88.4846801,108.886725 88.61589,108.85261 88.749635,108.849635 C89.0978102,108.832117 89.4667883,108.970073 89.8127737,108.910949 C90.1817518,108.84854 90.3941606,108.479562 90.7532847,108.424818 C91.129927,108.367883 91.5974453,108.557299 91.9215328,108.727007 C92.6485401,109.108029 93.2113139,109.735401 93.8923358,110.178832 C94.6565693,110.668248 96.1970803,110.869708 96.6164234,111.778467 Z" id="Path" fill="#768C00"></path>
                    <path d="M89.4886861,93.089781 C89.4886861,93.089781 90.3941606,93.1478102 90.5616788,93.6908759 C90.7291971,94.2339416 90.8408759,94.6762774 90.539781,95.3222628 C90.2386861,95.9682482 89.6540146,95.9572993 89.5740876,95.000365 C89.5094891,94.2273723 89.7930657,94.2273723 89.6594891,93.8846715 C89.5259124,93.5419708 88.9937956,93.089781 89.4886861,93.089781 Z" id="Path" fill="#FFFFFF"></path>
                    <path d="M88.6861314,93.4916058 C88.9620438,93.6558394 89.5029197,93.7160584 89.4251825,94.3434307 C89.3540146,94.920438 89.4821168,95.3463504 89.6594891,95.5806569 C89.8018248,95.7667883 89.970438,95.820438 90.1105839,95.7678832 C90.2890511,95.7021898 89.8609489,95.8773723 89.7229927,95.5160584 C89.5226277,94.9861314 89.8160584,94.9686131 90.2452555,94.6686131 C90.8616788,94.2306569 90.8025547,93.3416058 89.9277372,93.0262774 C89.0813869,92.7218978 88.5021898,93.3854015 88.6861314,93.4916058 Z" id="Path" fill="#6F3F16"></path>
                    <path d="M84.4160584,87.3569343 C84.4160584,87.3569343 85.1047445,86.9518248 85.5755474,87.270438 C86.020073,87.5715328 86.0967153,87.9416058 86.0770073,88.6521898 C86.0551095,89.4032847 85.6751825,89.6113139 85.1463504,88.7310219 C84.9744526,88.4441606 85.059854,88.1014599 84.7740876,87.8715328 C84.4883212,87.6416058 83.9956204,87.6076642 84.4160584,87.3569343 Z" id="Path" fill="#FFFFFF"></path>
                    <path d="M84.120438,87.7434307 C84.3864964,87.810219 84.8452555,87.7259124 84.9361314,88.2580292 C85.0193431,88.7452555 85.1364964,89.0485401 85.3543796,89.2029197 C85.6127737,89.3857664 85.9346715,89.3025547 85.8054745,89.2894161 C85.6018248,89.2675182 85.4562044,89.199635 85.3762774,88.9883212 C85.2667883,88.6948905 85.4682482,88.6018248 85.6872263,88.3226277 C86.0846715,87.8156934 85.8164234,87.0985401 85.0215328,87.0558394 C84.2594891,87.0142336 83.9485401,87.7007299 84.120438,87.7434307 Z" id="Path" fill="#6F3F16"></path>
                    <path d="M54.0372263,7.09270073 C48.6722628,6.57153285 43.1244526,8.30583942 38.5335766,11.0047445 C34.5919708,13.3215328 32.4788321,15.8430657 32.0912409,20.5083942 C31.8536496,23.3627737 31.7627737,26.2182482 31.7627737,29.0813869 C31.7627737,31.1025547 31.7879562,33.1083942 31.8656934,35.1218978 C31.9675182,37.749635 32.1175182,40.3850365 32.5083942,42.960219 C32.8434307,45.169708 33.290146,48.2211679 34.2941606,49.8284672 C35.5248175,51.7992701 36.720438,52.9959854 38.8357664,54.4981752 C44.0332117,58.1890511 44.8116788,58.8175182 48.2014599,59.1186131 C53.0737226,59.5510949 58.1583942,52.1868613 60.4215328,48.1138686 C62.0047445,45.2671533 63.7992701,42.270438 64.8350365,39.1653285 C65.1175182,38.3189781 65.4416058,35.9178832 65.6277372,35.0529197 C65.8246312,34.0548546 66.1952199,33.0991064 66.7226277,32.2291971 C67.5,30.8868613 67.6478102,30.2145985 67.780292,28.6291971 C67.9127737,27.0437956 68.8368613,15.6810219 68.8368613,15.6810219 C67.7649635,11.1087591 63.549635,8.01788321 54.0372263,7.09270073 Z" id="Path" fill="#CA8161"></path>
                    <path d="M52.3883212,30.9470803 C52.5383212,31.3675182 52.2065693,31.8580292 51.9240876,32.1251825 C51.3481752,32.6726277 50.6934307,32.269708 50.1032847,32.0025547 C47.9135036,31.0171533 44.6923358,30.2419708 41.9813869,31.4978102 C41.3781022,31.7770073 40.6248175,32.7284672 40.2733577,32.5521898 C40.1726277,32.2510949 41.0726277,31.1069343 41.629927,30.7193431 C42.6843066,29.9857664 43.8065693,29.8335766 45.0448905,29.6145985 C46.5087591,29.3551095 48.3240876,29.8182482 49.7781022,30.0525547 C50.4284672,30.1620438 52.0215328,30.2540146 52.3675182,30.9 C52.3756734,30.9151251 52.382629,30.9308669 52.3883212,30.9470803 Z" id="Path" fill="#54311E"></path>
                    <path d="M67.2448905,32.0923358 C67.3872263,32.0923358 67.5087591,32.0145985 67.589781,31.7835766 C67.8087591,31.1485401 67.0905109,30.5791971 66.5682482,30.4324818 C65.2281022,30.0459854 63.839781,30.3229927 62.4755474,30.3689781 C61.620438,30.4007299 60.2562044,30.4916058 59.4569343,30.8452555 C58.9226277,31.0817518 58.5569343,31.7025547 58.8,32.2828467 C58.8734654,32.449543 59.0077904,32.5819099 59.1755474,32.6529197 C59.8007299,32.9463504 60.7565693,32.4427007 61.3653285,32.2948905 C62.6784931,31.9776747 64.021153,31.7982375 65.3715328,31.7594891 C65.7339416,31.7507299 66.1160584,31.7354015 66.4664234,31.8273723 C66.7291971,31.8941606 67.0149635,32.0934307 67.2448905,32.0923358 Z" id="Path" fill="#54311E"></path>
                    <path d="M48.849635,35.2554745 C48.6216223,35.2389634 48.3925721,35.266851 48.1751825,35.3375912 C47.5631387,35.5762774 46.8613139,35.4021898 46.2416058,35.3036496 C45.2649635,35.1492701 44.2708029,34.9642336 43.2854015,34.9959854 C43.1452555,34.9959854 41.5675182,35.2040146 41.6255474,35.3474453 C41.6581913,35.4398605 41.7465408,35.5008217 41.8445255,35.4985401 C42.0120438,35.5215328 43.4868613,35.6813869 44.9354015,35.8270073 C46.3587591,35.9682482 47.7635036,36.0919708 47.8916058,36.0459854 C48.2055286,35.9387873 48.5107975,35.8077486 48.8047445,35.6540146 C48.927393,35.6002181 49.0335631,35.5148286 49.1124088,35.4065693 C49.1386861,35.320073 49.0193431,35.2729927 48.849635,35.2554745 Z" id="Path" fill="#54311E"></path>
                    <path d="M21.0678832,108.485036 C21.0678832,108.485036 26.3923358,108.656934 35.4963504,101.614599 C37.3171533,100.205474 46.6390511,97.2635036 47.8686131,96.6328467 C53.8806569,93.5408759 54.7390511,94.0554745 55.2547445,94.6620438 C56.6945255,96.3405109 62.1930657,89.4711679 66.9547445,91.0927007 C70.020438,92.1383212 73.8229927,92.8445255 76.1386861,93.2113139 C75.9635036,93.8343066 75.8978102,94.2350365 75.9821168,94.8908759 C76.1507299,96.1905109 76.9270073,97.5821168 77.900365,99.1281022 C76.8985401,98.6978102 76.1430657,100.098175 76.1934307,100.671898 C76.3029197,101.876277 75.0383212,100.158394 74.6945255,101.647445 C74.3507299,103.136496 73.2054745,102.906569 71.029927,101.991241 C68.8543796,101.075912 61.5240876,100.959854 57.7456204,101.647445 C53.9671533,102.335036 48.0109489,105.884672 46.5229927,108.404015 C45.0350365,110.923358 45.1478102,108.513504 44.690146,107.716423 C44.2324818,106.919343 39.1937956,108.861679 37.2448905,112.182482 C35.2959854,115.503285 32.8653285,115.017153 30.6886861,119.827007 C28.5120438,124.636861 23.6178832,129.704015 20.869708,134.742701 C18.1215328,139.781387 17.8916058,112.870073 17.8916058,112.870073 L21.0678832,108.485036 Z" id="Path" fill="#EDF2DD"></path>
                    <path d="M54.2857664,88.3335766 C52.940146,89.3572993 50.7525547,90.1335766 49.7791971,91.8514599 C48.6208029,93.8956204 48.0032847,92.8237226 50.2937956,90.4193431 C50.8718978,89.8116788 51.290146,89.3244526 51.6448905,88.9248175 C52.1452555,88.9609489 52.5854015,88.9456204 52.9281022,88.8153285 C53.1656934,88.7277372 53.649635,88.5470803 54.2857664,88.3335766 Z" id="Path" fill="#768C00"></path>
                    <path d="M51.0952555,99.2956204 C51.0952555,99.2956204 54.5310219,97.749635 55.819708,96.9766423 C57.1083942,96.2036496 59.4273723,95.6014599 60.2857664,95.6879562 C61.1441606,95.7744526 62.1755474,95.7733577 61.8317518,95.3441606 C61.4879562,94.9149635 61.0587591,93.5408759 60.1138686,94.2273723 C59.1689781,94.9138686 57.4510949,95.6879562 56.2489051,96.0317518 C55.0467153,96.3755474 48.0032847,98.779927 47.4021898,100.239416 C46.8010949,101.698905 46.5437956,105.04927 45.9427007,106.423358 C45.3416058,107.797445 43.6237226,111.919708 43.5339416,112.773723 C43.4441606,113.627737 43.2766423,115.35 43.0182482,116.724088 C42.759854,118.098175 41.3868613,120.589051 40.6992701,121.018248 C40.0116788,121.447445 32.8839416,126.859489 32.1109489,127.717883 C31.3379562,128.576277 30.650365,130.294161 32.1963504,129.178467 C33.7423358,128.062774 40.7857664,122.822628 41.6441606,121.44854 C42.5025547,120.074453 43.8777372,114.920803 44.1350365,113.20292 C44.3923358,111.485036 46.2821168,107.190876 46.6259124,106.245985 C46.969708,105.301095 47.830292,101.866423 48.7729927,100.920438 C49.7156934,99.9744526 51.0952555,99.2956204 51.0952555,99.2956204 Z" id="Path" fill="#768C00"></path>
                    <path d="M56.2270073,128.040876 C55.620438,127.40365 55.1594891,126.743431 54.6777372,127.10146 C54.9624088,126.567153 55.2678832,125.888321 55.3905109,125.233577 C55.6478102,123.859489 56.5062044,122.398905 56.7645985,123.001095 C57.0229927,123.603285 56.3354015,124.971898 56.9364964,126.093066 C57.2058394,126.592336 56.7372263,127.521898 56.2270073,128.040876 Z" id="Path" fill="#768C00"></path>
                    <path d="M73.3291971,111.006569 C73.2941606,112.250365 73.3291971,113.324453 73.4452555,113.927737 C73.5547445,114.475182 73.7616788,115.330292 73.9631387,116.266423 C74.2467153,117.591241 74.5105839,119.087956 74.4416058,120.155474 C74.0540146,120.183942 73.6952555,120.209124 73.3653285,120.231022 C73.1726277,121.106934 72.9635036,121.674088 72.740146,121.79781 C72.7328525,121.80117 72.725888,121.805202 72.7193431,121.809854 C72.8804074,121.312176 72.9075961,120.780863 72.7981752,120.269343 C72.7828467,120.179562 72.7642336,120.088686 72.740146,119.994526 C72.4565693,118.864599 72.2266423,116.546715 72.2178832,113.832482 C72.2091241,111.6 72.3514599,109.094891 72.740146,106.767153 C73.5985401,101.614599 76.4332117,98.0835766 76.0894161,99.2474453 C75.7456204,100.411314 74.8116788,101.984672 74.1186131,104.420803 C73.6740876,105.985401 73.3894161,108.768613 73.3291971,111.006569 Z" id="Path" fill="#768C00"></path>
                    <path d="M87.6076642,117.883577 C87.4303518,117.85422 87.2551577,117.813256 87.0832117,117.760949 C86.2850365,117.522263 84.7434307,117.74562 82.829562,117.718248 C82.7135036,117.805839 82.5875912,117.896715 82.4540146,117.991971 C82.4755597,117.889275 82.4438573,117.78264 82.369708,117.708394 C82.2667883,117.598905 82.0620438,117.527737 81.7291971,117.50365 C80.8850365,117.442336 79.9357664,117.358029 78.9854015,117.218978 C77.2937956,116.972628 75.5912409,116.555474 74.4580292,115.785766 C73.1315461,114.922153 72.4901481,113.318658 72.8551095,111.778467 C72.9597005,112.338307 73.1612693,112.875577 73.4507299,113.366058 C73.8195884,114.017387 74.3958073,114.526541 75.0875912,114.812409 C76.9773723,115.556934 77.6649635,116.358394 79.5547445,115.90073 C80.2773723,115.725547 81.2529197,115.641241 82.2427007,115.65219 C83.8368613,115.665328 85.4671533,115.921533 86.1383212,116.418613 C86.7208029,116.84562 87.0580292,117.472993 87.6076642,117.883577 Z" id="Path" fill="#768C00"></path>
                    <path d="M77.8927007,102.730292 C77.9846715,102.913139 78.549635,103.622628 79.2262774,104.327737 C79.8240876,104.957299 80.4985401,105.580292 80.9846715,105.822263 C81.3229927,105.990876 81.8080292,106.235036 82.3609489,106.494526 C83.0408759,106.814234 83.8215328,107.156934 84.5507299,107.418613 C84.9841813,107.581318 85.4301868,107.708382 85.8843066,107.79854 C86.3978102,107.889416 87.0054745,107.989051 87.5868613,108.127007 C88.6587591,108.376642 89.6375912,108.735766 89.7492701,109.348905 C89.9211679,110.293796 89.6627737,112.09708 90.350365,112.524088 C90.7567024,112.766121 91.1496151,113.030012 91.5273723,113.314599 L91.5339416,113.314599 C91.7672362,113.491191 91.9868407,113.685175 92.1908759,113.894891 L92.2029197,113.906934 C92.4575242,114.159453 92.6700669,114.451099 92.8324818,114.770803 C93.1354465,115.345984 93.0706229,116.045736 92.6671533,116.555474 C92.5379562,116.612409 92.3222628,116.534672 92.0452555,116.364964 C91.776995,116.632242 91.4836767,116.873129 91.1693431,117.084307 C91.2751782,116.705335 91.2292292,116.30004 91.0412409,115.95438 C90.8335295,115.581125 90.5813238,115.234434 90.290146,114.921898 C89.7284672,114.296715 89.2062044,113.85219 89.3233577,113.206204 C89.4952555,112.261314 89.5806569,110.543431 88.6357664,110.286131 C87.6908759,110.028832 85.4605839,108.137956 83.7405109,107.708759 C83.2877093,107.575365 82.8527759,107.387494 82.4452555,107.14927 C81.4170818,106.57524 80.4446305,105.906656 79.5405109,105.15219 C79.1572993,104.835766 78.8649635,104.436131 78.4664234,104.150365 C78.1149635,103.89854 77.7,103.69927 77.4908759,103.299635 C77.3426381,102.988463 77.2206803,102.665439 77.1262774,102.333942 C76.9861314,101.908029 76.7791971,101.387956 76.4507299,101.071533 C76.2263186,100.878497 76.0443846,100.641013 75.9164234,100.374088 C75.7379562,100.006204 75.5879562,99.6240876 75.4445255,99.2408759 C75.0026993,98.0516353 74.8049706,96.7855761 74.8631387,95.5182482 C74.8784672,95.2226277 74.9791971,94.4014599 75.280292,94.6160584 C75.0864964,95.0025547 75.2058394,95.2543796 75.1510949,95.6474453 C75.0164234,96.6142336 75.1937956,97.3390511 75.6985401,98.1886861 C75.8748175,98.4875912 76.1211679,98.760219 76.1846715,99.0974453 C76.4430657,100.494526 77.2740876,101.49635 77.8927007,102.730292 Z" id="Path" fill="#768C00"></path>
                    <path d="M42.8879562,88.4967153 C42.8879562,88.4967153 48.0656934,86.3868613 50.2368613,83.5773723 C52.2985401,80.9145985 51.9547445,82.9762774 55.3040146,80.4021898 C56.4372263,79.5262774 55.6478102,77.9113139 52.8952555,78.769708 C50.1427007,79.6281022 47.7416058,81.1784672 47.4843066,81.689781 C47.2270073,82.2010949 42.8879562,88.4967153 42.8879562,88.4967153 Z" id="Path" fill="#BB7150"></path>
                    <path d="M61.9609489,72.1532847 L61.5229927,72.0229927 L59.569708,71.4448905 C59.569708,71.9266423 53.9594891,71.3507299 53.9594891,71.3507299 L53.7733577,71.8642336 C53.0868613,73.7660584 50.719708,80.3266423 50.5237226,80.9135036 C50.2937956,81.6010949 45.8835766,86.0518248 44.3923358,87.5408759 C42.9010949,89.029927 40.1671533,89.8291971 38.7930657,89.600365 C37.4189781,89.3715328 33.9153285,95.8018248 32.5412409,96.2583942 C31.1671533,96.7149635 26.4689781,95.5686131 27.730292,91.5591241 C27.730292,91.5591241 31.1047445,86.7186131 33.0788321,84.2518248 C35.0868613,81.7412409 40.4430657,75.5321168 42.7324818,72.7839416 C43.4989051,71.8587591 44.039781,71.2970803 44.5138686,70.9160584 C44.7600136,70.7144417 45.0272644,70.5400679 45.3109489,70.3959854 L45.3591241,70.3718978 C45.3864964,70.3576642 45.4160584,70.3423358 45.4456204,70.330292 C45.5222628,70.2930657 45.6,70.2580292 45.6810219,70.2208029 L45.9,70.1310219 L46.0850365,70.0587591 L46.379562,69.9492701 C46.790146,69.7948905 47.2740876,69.6142336 47.8905109,69.3470803 C50.5259124,68.2007299 53.7317518,66.4828467 54.1894161,66.7116788 L54.2364964,66.7324818 C54.8682482,67.0105839 60.1160584,68.9967153 60.3733577,69.3175182 C60.6306569,69.6383212 61.170438,70.8624088 61.5886861,71.6069343 C61.6875929,71.8049906 61.8128138,71.9887707 61.9609489,72.1532847 L61.9609489,72.1532847 Z" id="Path" fill="#C17655"></path>
                    <path d="M79.180292,87.9328467 C79.2514599,88.030292 77.8883212,89.0277372 77.0178832,89.6474453 L76.7813869,89.489781 L76.6653285,89.8981752 L76.3138686,90.1423358 L76.5405109,90.3131387 C76.2416058,91.340146 75.75,92.9551095 75.6339416,92.920073 C75.6339416,92.920073 76.4080292,93.8583942 77.4591241,93.4324818 C78.510219,93.0065693 79.5591241,93.5693431 80.2281022,93.9864964 C80.8587591,94.379562 81.9229927,94.410219 82.3160584,93.9941606 C82.343586,93.9595826 82.3684737,93.922983 82.3905109,93.8846715 C82.6543796,93.3766423 82.2744526,92.3813869 81.6963504,91.9138686 C81.0821168,91.420073 80.2051095,90.6142336 80.2609489,89.4821168 C80.3167883,88.35 79.180292,87.9328467 79.180292,87.9328467 Z" id="Path" fill="#E9D5DF"></path>
                    <path d="M79.0094891,90.9635036 C77.3605839,93.6919708 74.970438,95.2664234 73.6718978,94.4813869 C73.2832117,94.2459854 70.4890511,92.5839416 70.3773723,92.0375912 C70.1178832,90.7587591 73.149635,90.0317518 74.3058394,88.120073 C75.4248175,86.269708 75.1182482,83.1733577 76.3467153,82.7616788 C76.9291971,82.5656934 79.2262774,84.350365 79.6434307,84.6032847 C80.9430657,85.3883212 80.6583942,88.2361314 79.0094891,90.9635036 Z" id="Path" fill="#FFD22B"></path>
                    <ellipse id="Oval" fill="#FFB62B" transform="translate(73.711502, 87.667587) rotate(-58.840000) translate(-73.711502, -87.667587) " cx="73.7115017" cy="87.6675867" rx="5.77116788" ry="2.74817518"></ellipse>
                    <path d="M73.7288321,79.7791971 C75.0920431,80.5961826 76.0748706,81.9212439 76.4611005,83.462878 C76.8473304,85.0045122 76.6053241,86.6364345 75.7883212,87.999635 L75.1718978,89.0288321 C74.3549123,90.3920431 73.029851,91.3748706 71.4882168,91.7611005 C69.9465827,92.1473304 68.3146604,91.9053241 66.9514599,91.0883212 L54.670073,83.7284672 L61.4474453,72.4193431 L73.7288321,79.7791971 Z" id="Path" fill="#9BE3FF"></path>
                    <path d="M60.1861314,79.3346715 C58.2930657,82.4660584 55.7047445,84.3711679 54.4062044,83.5828467 C53.8587591,83.2543796 53.6310219,82.5087591 53.6824818,81.5244526 C53.749391,80.6695774 53.9404472,79.8290041 54.249635,79.0291971 C54.57865,78.1454579 54.9914806,77.2952321 55.4824818,76.490146 C57.3755474,73.3587591 59.9627737,71.4536496 61.2635036,72.2419708 C62.5642336,73.030292 62.080292,76.2043796 60.1861314,79.3346715 Z" id="Path" fill="#86CCEC"></path>
                    <path d="M60.1861314,79.3346715 C58.2930657,82.4660584 55.7047445,84.3711679 54.4062044,83.5828467 C53.9485401,83.3047445 53.7120438,82.7321168 53.6813869,81.9678832 C53.7908759,82.3609489 53.9967153,82.659854 54.2912409,82.8437956 C55.5908759,83.6288321 58.1781022,81.7259124 60.0711679,78.5945255 C61.299635,76.5656934 61.9324818,74.5193431 61.8733577,73.120073 C62.2718978,74.4591241 61.6510949,76.9105839 60.1861314,79.3346715 Z" id="Path" fill="#BFEDFF"></path>
                    <path d="M75.2594891,83.7777372 L75.6974453,83.6682482 C76.2400698,84.6118453 76.3062039,85.7560064 75.8759124,86.7558394 C75.5857664,87.4379562 74.0693431,90.7259124 71.409854,91.2645985 C70.8251825,91.3828467 69.4948905,91.4638686 68.6605839,91.1354015 C65.8270073,90.0186131 60.2014599,86.1974453 60.5441606,86.0682482 C61.3576642,85.7627737 66.6427007,85.0828467 66.5572993,85.209854 C66.4718978,85.3368613 75.2594891,83.7777372 75.2594891,83.7777372 Z" id="Path" fill="#ECD581"></path>
                    <path d="M66.8124088,82.9335766 C68.9091241,82.7145985 71.4109489,82.2766423 73.5131387,82.589781 C76.359854,83.0080292 76.5645985,84.2638686 74.4580292,85.3379562 C72.0317518,86.5751825 68.0364964,87.2693431 65.3529197,87.1412409 C64.4551095,87.0985401 60.0416058,86.9890511 59.8554745,85.509854 C59.6321168,83.7251825 65.5762774,83.0594891 66.8124088,82.9335766 Z" id="Path" fill="#FFF3C0"></path>
                    <path d="M60.8529197,70.8952555 C60.1861314,70.5175182 58.9839416,70.1759124 58.2919708,69.909854 C57.1718978,69.4894161 56.2576642,69.1642336 55.1529197,68.830292 C54.1532847,68.5281022 53.269708,68.7547445 51.539781,69.3076642 C49.9040146,69.8288321 45.6635036,71.0649635 46.4452555,71.0233577 C46.4529197,71.1076642 46.5076642,71.1328467 46.5974453,71.1405109 L52.6434307,71.8051095 L53.7755474,71.859854 L61.490146,72.2343066 L61.5251825,72.0153285 L61.620438,71.9518248 C61.3894161,71.4372263 61.3051095,71.150365 60.8529197,70.8952555 Z" id="Path" fill="#BB7150"></path>
                    <path d="M65.8193431,77.5675182 C65.0434632,77.864047 64.1695487,77.7399114 63.5069343,77.2390511 C62.4284672,76.4441606 60.8583942,74.7208029 60.5222628,74.5390511 C60.1861314,74.3572993 54.0284672,72.5124088 53.2740876,72.7686131 C52.8427007,72.9142336 50.2576642,74.2642336 48.2288321,74.5708029 C46.6959854,74.8007299 45.3952555,74.9135036 45.3306569,74.6649635 C45.1828467,74.0846715 44.8248175,71.6069343 45.4072993,71.4021898 C45.4072993,71.4021898 54.1664234,68.6649635 54.8989051,69.0952555 C55.6313869,69.5255474 61.8492701,71.5040146 62.4131387,71.7514599 C62.9770073,71.9989051 65.8992701,76.1923358 66.6284672,76.5689781 C66.9788321,76.7518248 66.5540146,77.2992701 65.8193431,77.5675182 Z" id="Path" fill="#CA8161"></path>
                    <path d="M65.8193431,77.5675182 C65.0434632,77.864047 64.1695487,77.7399114 63.5069343,77.2390511 C62.4284672,76.4441606 60.8583942,74.7208029 60.5222628,74.5390511 C60.1861314,74.3572993 54.019708,72.7270073 53.2653285,72.9832117 C52.8339416,73.1288321 50.2576642,74.2642336 48.2288321,74.5708029 C48.2288321,74.5708029 45.6613139,73.2843066 46.3149635,73.1222628 C48.0952555,72.6843066 53.9310219,71.419708 53.9310219,71.419708 L61.1748175,73.9927007 C61.1748175,73.9927007 63.1215328,76.8711679 65.8193431,77.5675182 Z" id="Path" fill="#BB7150"></path>
                    <path d="M63.9218978,79.9062044 C63.4138686,80.1328467 62.7175182,80.1328467 61.8021898,79.9412409 C61.5625201,79.887533 61.3309672,79.8024953 61.1135036,79.6883212 C60.0689781,79.1660584 59.0923358,78.0963504 58.899635,77.8981752 L58.8821168,77.879562 C58.710219,77.7076642 54.8748175,76.7354015 54.2441606,76.219708 C54.2363788,76.2136544 54.2279296,76.2085115 54.2189781,76.2043796 C54.2109155,76.19816 54.2020833,76.1930079 54.1927007,76.1890511 C53.5532847,75.9131387 50.1131387,77.2313869 48.229927,77.8313869 C47.6069343,78.0284672 47.1547445,78.1489051 47.0255474,78.1072993 C46.509854,77.9354015 43.589781,74.0419708 46.2810219,73.4113139 C46.560219,73.3456204 53.4240876,71.8510949 53.8828467,72.0229927 C54.3416058,72.1948905 59.7372263,74.6715328 60.2518248,75.0153285 C60.7664234,75.3591241 64.0948905,78.5967153 64.7189781,78.7379562 C65.0364964,78.8091241 64.7485401,79.5372263 63.9218978,79.9062044 Z" id="Path" fill="#CA8161"></path>
                    <path d="M63.9218978,79.9062044 C63.4138686,80.1328467 62.6989051,80.2259124 61.8021898,79.9412409 C61.5514599,79.8613139 61.3237226,79.7759124 61.1135036,79.6883212 C60.0689781,79.1660584 59.0923358,78.0963504 58.899635,77.8981752 L58.8821168,77.879562 C58.780292,77.7777372 58.5536496,77.7416058 58.4211679,77.6989051 C58.0927007,77.5894161 57.7642336,77.4952555 57.4357664,77.3956204 C56.6529197,77.1558394 55.8645985,76.9226277 55.0981752,76.6291971 C54.9306569,76.5656934 54.6985401,76.4474453 54.5364964,76.369708 C54.3927329,76.2857485 54.2368893,76.2244451 54.0744526,76.1879562 C53.820438,76.1408759 53.5675182,76.2186131 53.3167883,76.2547445 C53.0452555,76.2952555 52.7693431,76.3160584 52.4967153,76.3467153 C51.5222628,76.4562044 50.5467153,76.5777372 49.5821168,76.7594891 C49.0614098,76.8520767 48.5469249,76.9767671 48.0416058,77.1328467 C48.0416058,77.1328467 47.9978102,76.8317518 48.6427007,76.659854 C50.269708,76.2218978 53.4525547,75.1138686 53.7744526,75.3711679 C55.0883212,76.4255474 59.2062044,77.2182482 59.2062044,77.2182482 C59.2062044,77.2182482 61.0587591,79.8416058 63.9218978,79.9062044 Z" id="Path" fill="#BB7150"></path>
                    <path d="M55.3040146,80.5708029 C54.890146,81.0186131 53.9266423,81.4467153 53.6824818,81.5244526 C53.610219,81.0864964 53.8773723,79.9456204 54.2124088,79.030292 C54.229927,79.030292 55.4583942,78.6175182 55.4759124,78.6175182 C56.1678832,78.6459854 56.3562044,79.4332117 55.3040146,80.5708029 Z" id="Path" fill="#D87715"></path>
                    <path d="M48.2332117,80.6857664 C48.2332117,80.6857664 49.0489051,80.6255474 51.0383212,80.2281022 C52.4693431,79.9412409 53.1569343,79.139781 53.3857664,79.4835766 C53.6145985,79.8273723 55.8744526,80.6879562 56.3638686,80.6879562 C57.050365,80.6879562 57.1094891,82.2448905 58.0817518,82.8919708 C59.1120438,83.579562 60.4434307,83.199635 60.2572993,82.8635036 C59.7601779,81.8995819 59.3758871,80.8815418 59.1120438,79.829562 C58.8722628,78.820073 56.5357664,77.7678832 55.3894161,77.1952555 C54.4270073,76.7135036 53.4427007,75.9908759 52.9806569,76.1069343 C52.5186131,76.2229927 48.629562,76.8514599 48.2288321,77.1383212 C47.8281022,77.4251825 46.5722628,80.5708029 48.2332117,80.6857664 Z" id="Path" fill="#CA8161"></path>
                    <path d="M50.3014599,51.4948905 C50.859854,51.5518248 55.2591241,50.879562 55.0992701,51.4948905 C54.8540146,52.4452555 53.8083942,54.4018248 50.5839416,54.1467153 C48.6755474,53.9956204 47.4711679,53.1930657 46.9182482,52.7408759 C45.7762774,51.8058394 44.6036496,49.6686131 45.3109489,49.9784672 C47.2062044,50.8029197 48.8321168,51.350365 50.3014599,51.4948905 Z" id="Path" fill="#B33C0F"></path>
                    <path d="M49.5021898,51.6722628 C51.1226277,51.9262774 54.510219,52.340146 55.6062044,50.8324818 C54.9930657,49.7375912 54.0930657,49.529562 53.2959854,49.7277372 C51.9120438,50.0715328 51.5441606,49.8777372 50.3835766,49.5262774 C49.2416058,49.1813869 47.6343066,50.080292 46.5164234,49.8284672 C44.9594891,49.4759124 44.5708029,48.6821168 44.5576642,49.0751825 C44.6080292,49.9784672 46.0642336,51.1313869 49.5021898,51.6722628 Z" id="Path" fill="#9E2F04"></path>
                    <path d="M26.0014599,73.5427007 C26.3091241,73.0959854 27.8233577,66.0875912 24.5781022,66.249635 C18.5562044,66.5507299 13.1036496,66.7335766 9.52445255,68.6244526 C2.30583942,72.440146 0.758759124,81.7708029 0.328467153,89.1492701 C0.229927007,90.7576642 0.139051095,100.983942 0.0229927007,102.558394 C-0.27810219,106.625912 2.43175182,108.132482 5.74817518,108.885766 C9.42043796,109.720073 13.9718978,108.212409 16.1430657,107.529197 C21.4160584,105.872628 20.7558394,104.811679 22.9226277,103.612774 C26.4788321,101.641971 23.170073,90.3470803 23.0737226,86.3748175 C23.0047445,83.5007299 22.2514599,80.5521898 22.9083942,77.6945255 C23.3693431,75.6908759 24.9481752,75.0678832 26.0014599,73.5427007 Z" id="Path" fill="#42ACE1"></path>
                    <path d="M24.3427007,90.4675182 C24.6416058,92.25 25.1332117,96.9832117 24.9065693,97.5919708 C23.750365,100.690511 23.1875912,93.5014599 22.7989051,92.4635036 C22.2416058,90.9832117 19.6346715,88.1321168 20.000365,87.6624088 C20.3507299,87.5671533 21.5934307,89.3047445 22.7989051,89.9408759 C24.1970803,89.5259124 19.5218978,82.5547445 20.2981752,82.6861314 C21.0656934,82.6708029 23.5521898,85.7594891 24.3427007,90.4675182 Z" id="Path" fill="#3A96C4"></path>
                    <path d="M48.9416058,35.4832117 C48.939629,35.5837733 48.9196029,35.683162 48.8824818,35.7766423 C48.6580292,36.3470803 47.8248175,36.7708029 46.8317518,36.7708029 C45.9131387,36.7708029 45.130292,36.4062044 44.8412409,35.900365 C44.7651545,35.7692266 44.7244098,35.6205842 44.7229927,35.4689781 C44.7229927,35.4492701 44.7229927,35.429562 44.7229927,35.409854 L45.1729927,35.4405109 C46.6729927,35.55 47.9277372,35.6266423 48.2386861,35.5434307 C48.4692207,35.4918526 48.7056576,35.4715971 48.9416058,35.4832117 Z" id="Path" fill="#54311E"></path>
                    <path d="M64.1923358,35.8620438 C63.9947564,35.8459718 63.7960876,35.8744066 63.6109489,35.9452555 C63.0821168,36.1828467 62.4777372,36.0087591 61.9412409,35.9113139 C61.0970803,35.7558394 60.2386861,35.5718978 59.3857664,35.6025547 C59.2642336,35.6025547 57.9010949,35.8105839 57.9514599,35.9540146 C57.9725585,36.0397226 58.0472587,36.1015281 58.1354015,36.1062044 C58.2810219,36.1291971 59.5532847,36.2879562 60.8058394,36.4346715 C62.0364964,36.5770073 63.2474453,36.7007299 63.3547445,36.6536496 C63.6284174,36.5461671 63.8921912,36.4150129 64.1430657,36.2616788 C64.2525766,36.205388 64.3445881,36.1201922 64.4091241,36.0153285 C64.4430657,35.9222628 64.3390511,35.8751825 64.1923358,35.8620438 Z" id="Path" fill="#54311E"></path>
                    <path d="M64.270073,36.0854015 C64.2688284,36.1856099 64.2518325,36.2849992 64.219708,36.379927 C64.0259124,36.950365 63.3065693,37.3740876 62.4492701,37.3740876 C61.6554745,37.3740876 60.979927,37.0094891 60.730292,36.4981752 C60.6636521,36.364068 60.6284541,36.2165363 60.6273723,36.0667883 C60.6262833,36.0470953 60.6262833,36.0273572 60.6273723,36.0076642 L61.0149635,36.0383212 C62.310219,36.1478102 63.3941606,36.2244526 63.6591241,36.1423358 C63.8585523,36.0915772 64.0646999,36.0723663 64.270073,36.0854015 L64.270073,36.0854015 Z" id="Path" fill="#54311E"></path>
                    <path d="M55.8645985,44.0145985 C55.6642336,44.2051095 56.0912409,46.2043796 55.2755474,46.7047445 C53.7744526,47.6321168 50.1175182,45.6229927 49.8240876,46.3664234 C49.7222628,46.5021898 50.0255474,46.6948905 50.5368613,46.8919708 C50.5973744,47.0686684 50.6956358,47.2300711 50.8248175,47.3649635 C51.2069343,47.8248175 52.0740876,48.6361314 52.6861314,48.6547445 C53.409854,48.6755474 54.7664234,48.2638686 55.2864964,47.729562 C55.3981149,47.6310256 55.4831991,47.5060346 55.5339416,47.3660584 C56.090146,47.1043796 56.4010949,46.6587591 56.5686131,46.0521898 C56.7021898,45.5813869 56.8357664,43.0927007 55.8645985,44.0145985 Z" id="Path" fill="#C17655"></path>
                    <path d="M6.14343066,125.479927 C6.20583942,119.227007 9.38540146,112.971898 12.8813869,108.514599 C16.7594891,103.570073 21.0514599,99.7149635 24.8759124,95.0135036 C25.9226277,93.7270073 35.4153285,80.3529197 36.9624088,80.8631387 C37.4244526,81.0164234 35.1733577,85.110219 35.5390511,85.5306569 C36.1850365,86.2718978 36.8715328,86.9408759 37.7178832,87.4445255 C38.2653285,87.7729927 43.2339416,84.5846715 42.8879562,85.1824818 C39.2332117,91.4934307 35.7470803,99.7445255 33.0656934,106.470438 C31.2777372,110.949635 30.3952555,114.931752 28.8843066,119.505109 C27.7423358,122.959489 26.7065693,127.388321 23.7109489,129.823358 C21.3810219,131.717518 19.2361314,132.815693 17.0978102,134.292701 C14.6178832,136.005109 13.8766423,137.060584 12.6175182,136.810949 C8.78540146,136.065328 7.30620438,134.666058 6.77737226,131.909124 C6.33284672,129.615328 6.11824818,128.00146 6.14343066,125.479927 Z" id="Path" fill="#CA8161"></path>
                    <path d="M71.6386861,23.1021898 C71.7481752,22.7649635 71.7481752,22.369708 71.419708,21.7740876 C70.6215328,20.3255474 69.689781,20.4733577 70.1332117,18.6437956 C70.7211679,16.2109489 70.9478102,14.2434307 68.4,13.059854 C66.8036496,12.3153285 67.1386861,12.2737226 66.5956204,10.6291971 C66.0218978,8.91240876 64.5985401,9.33832117 63.5375912,8.43832117 C62.4427007,7.50547445 63.520073,6.09087591 61.7408759,5.19635036 C60.5748175,4.60948905 59.3759124,4.42226277 58.2372263,3.76423358 C57.0437956,3.07335766 56.1043796,2.54014599 54.7948905,2.07372263 C52.6051095,1.29525547 50.479927,0.0591240876 48.0229927,0.110583942 C46.5153285,0.142335766 45.4313869,1.24051095 44.1054745,1.46605839 C42.5080292,1.73978102 40.7879562,0.142335766 38.9408759,0.304379562 C35.2718978,0.626277372 31.8613139,2.94744526 29.3222628,5.48430657 C25.8481752,8.95839416 24.6021898,12.2135036 23.9989051,16.8339416 C23.610219,19.8131387 22.870073,25.3740876 24.8025547,28.0828467 C25.560219,29.1448905 26.9069343,29.1284672 28.0751825,29.0014599 C29.5762774,28.8383212 30.8945255,28.6445255 32.3047445,29.3890511 C32.6518248,29.5718978 33.0065693,29.7470803 33.2211679,30.0919708 C33.4521898,30.4642336 33.2770073,30.9678832 33.6229927,31.2350365 C33.9952555,31.5218978 34.4660584,31.1135036 34.8175182,31.2930657 C35.2313869,31.5043796 34.8076642,32.0441606 35.2051095,32.2631387 C35.6627737,32.5160584 35.9594891,31.9291971 36.0711679,31.5875912 C36.3361314,30.7740876 36.5463504,30.2737226 37.5886861,30.2430657 C38.5740876,30.2167883 39.280292,30.2956204 39.4357664,29.1021898 C39.5868613,27.9350365 40.0927007,27.6788321 41.2434307,27.6306569 C42.0854015,27.5956204 42.220073,27.2813869 42.7489051,26.7273723 C43.0905109,26.370438 43.3894161,26.3737226 43.8569343,26.2740876 C45.280292,25.9686131 47.2357664,24.7412409 47.7208029,23.3178832 C48.4872263,21.0854015 47.9693431,19.4375912 49.8689781,17.7514599 C51.5485401,16.2613139 51.6372263,17.2927007 52.9959854,18.7609489 C54.0448905,19.8941606 54.9667883,19.1529197 56.310219,19.6609489 C57.7642336,20.2083942 57.9054745,21.9032847 59.1678832,22.4135036 C60.6372263,23.0069343 62.0638686,22.2054745 63.539781,23.2773723 C65.080292,24.3963504 64.0762774,25.3149635 64.7386861,26.6364964 C65.2740876,27.7040146 66.9032847,27.5879562 67.7551095,28.3160584 C68.7262774,29.1459854 68.8927007,30.3656934 68.840146,31.5744526 C69.3875912,31.7627737 69.5583942,32.2029197 69.4390511,32.7788321 C69.7221755,32.9130598 70.0187199,33.0169237 70.3237226,33.0886861 C70.8952555,32.2664234 70.6149635,31.4781022 70.7726277,30.5419708 C71.0025547,29.1788321 72.0459854,27.6952555 71.9770073,26.3233577 C71.9364964,25.5109489 71.1416058,25.2131387 71.1010949,24.8244526 C71.0047445,24.0208029 71.4645985,23.6332117 71.6386861,23.1021898 Z" id="Path" fill="#1A172E"></path>
                    <path d="M32.649635,41.4963504 C32.7163307,41.6585585 32.7722908,41.8249757 32.8171533,41.9945255 C33.0793873,40.7765511 33.2720351,39.5446291 33.3941606,38.3047445 C33.7806569,34.5624088 34.0072993,30.3656934 30.4894161,28.0062044 C29.7952555,27.539781 28.6806569,28.1156934 27.7281022,29.6113139 C26.7755474,31.1069343 28.850365,37.3127737 29.5379562,39.0065693 C30.2255474,40.700365 32.4952555,41.1273723 32.649635,41.4963504 Z" id="Path" fill="#C67754"></path>
                    <path d="M32.0310219,32.0967153 C32.0310219,32.0967153 31.0839416,29.9627737 30.060219,29.8259124 C29.0364964,29.6890511 28.3894161,30.7412409 28.6510949,31.7408759 C28.9127737,32.7405109 28.9423358,31.5218978 29.3638686,30.8649635 C29.7854015,30.2080292 30.6109489,30.8759124 30.9164234,31.3806569 C31.2218978,31.8854015 32.4175182,33.2321168 32.0310219,32.0967153 Z" id="Path" fill="#C17655"></path>
                    <path d="M32.3682482,35.7930657 C32.0167883,35.6211679 31.6313869,36.2485401 31.930292,36.8408759 C32.2291971,37.4332117 32.2784672,38.4514599 31.6675182,37.920438 C31.0565693,37.3894161 29.4109489,34.8175182 30.0087591,34.1605839 C30.4888933,33.6136779 31.320657,33.5574116 31.870073,34.0346715 C32.2740876,34.4069343 32.9660584,36.0832117 32.3682482,35.7930657 Z" id="Path" fill="#C17655"></path>
                    <path d="M53.3923358,16.4507299 C51.0164234,12.7390511 46.9773723,18.3240876 50.1164234,19.7354015 C51.500365,20.3649635 52.3992701,19.0510949 53.4306569,20.649635 C54.159854,21.7828467 53.7153285,23.3277372 55.1266423,23.7076642 C55.9664234,23.9343066 55.860219,22.9708029 56.610219,23.7645985 C56.9857664,24.1620438 56.8291971,25.0313869 57.009854,25.5251825 C58.4419708,25.0094891 57.4116788,22.9259124 56.5149635,22.3784672 C55.7616788,21.919708 55.6390511,22.7759124 55.0215328,21.800365 C54.6361314,21.1916058 54.9569343,20.3572993 54.7072993,19.6927007 C54.4478102,19.0007299 53.929927,18.9459854 53.6244526,18.2989051 C53.3616788,17.7372263 53.8040146,17.0934307 53.3923358,16.4507299 Z" id="Path" fill="#1A172E"></path>
                </g>
            </g>
        </g>
    </g>
</svg>