<?xml version="1.0" encoding="UTF-8"?>
<svg width="57px" height="187px" viewBox="0 0 57 187" version="1.1" xmlns="http://www.w3.org/2000/svg" xmlns:xlink="http://www.w3.org/1999/xlink">
    <!-- Generator: Sketch 60 (88103) - https://sketch.com -->
    <title>carrying-baby</title>
    <desc>Created with Sketch.</desc>
    <g id="main" stroke="none" stroke-width="1" fill="none" fill-rule="evenodd">
        <g id="Homepage---proposed" transform="translate(-655.000000, -200.000000)">
            <g id="nav-card-copy" transform="translate(523.000000, 200.000000)">
                <g id="carrying-baby" transform="translate(132.000000, 0.000000)">
                    <path d="M56.6504229,182.125458 C55.0272737,184.922273 48.5406007,185.86148 44.5567764,186.405387 C37.9449805,187.27621 31.2428445,187.19013 24.6554266,186.14978 C23.2307281,186.304333 21.5898072,186.14978 20.2510052,186.08142 C17.4223419,185.912007 14.6055263,185.596956 11.8301781,185.189769 C9.22216697,184.85338 6.6402042,184.337986 4.10244757,183.647211 C2.3726681,183.147886 0.844301302,182.529674 0.225253512,181.325944 C-1.31792304,178.353771 5.46790705,177.693949 8.41208649,177.494813 C12.9497957,177.197596 17.5941351,177.349177 22.1348062,177.601811 C25.4462676,177.786086 28.7162616,177.2719 31.909245,176.79338 C35.97008,176.184085 40.0723823,175.524263 44.278353,175.628289 C48.1525851,175.723398 51.792823,176.698271 54.6748015,178.368632 C56.2772171,179.313783 57.4619975,180.740426 56.6504229,182.125458 Z" id="Path" fill="#DBD9D8" fill-rule="nonzero" style="mix-blend-mode: multiply;"></path>
                    <path d="M35.0767823,30.997838 C34.4496937,30.997838 31.9149664,30.9356379 30.8190265,29.2503128 C30.0630038,26.8215491 30.6959531,24.434252 31.3142507,22.1032312 C31.9325484,19.7722103 28.9699943,20.7022491 27.6425591,20.326087 C26.3034026,20.7140968 23.2470782,19.7337056 23.9737977,22.1032312 C24.7005172,24.4727568 25.2221143,26.8422824 24.4660916,29.2651224 C23.3672214,30.9267522 20.8383547,30.997838 20.2112661,30.997838 C20.2112661,30.997838 16.1439812,39.8391304 27.6425591,39.8391304 C39.1411369,39.8391304 35.0767823,30.997838 35.0767823,30.997838 Z" id="Path" fill="#CA8161" fill-rule="nonzero"></path>
                    <path d="M25.2809289,26.4720452 C27.0808735,26.9136986 28.8368244,27.5271155 30.5259502,28.30432 L30.8503845,28.4565217 C30.6710919,26.5686348 31.1520515,24.7100174 31.6273193,22.8953043 C32.2278074,20.5888626 29.3505873,21.5108539 28.0613878,21.1391304 C26.7608047,21.5225617 23.7925154,20.5537391 24.4983023,22.8953043 C24.8742197,24.0578059 25.1363944,25.2559903 25.2809289,26.4720452 L25.2809289,26.4720452 Z" id="Path" fill="#DAD6D2" fill-rule="nonzero" style="mix-blend-mode: multiply;"></path>
                    <path d="M27.5425607,138.610576 C28.0666459,130.55567 26.3597892,131.223929 26.7464094,125.633227 C26.5573951,122.250166 25.2056563,121.382026 23.5245743,121.158279 C21.362365,120.883816 19.6898746,124.517473 19.6898746,124.517473 C20.3227862,129.463782 18.8307185,130.409488 18.9252257,138.714992 C19.0397798,148.261547 23.5073912,175.937608 23.5073912,175.937608 C23.0119445,177.244293 21.1218013,177.84692 18.0087926,178.735943 C18.0087926,178.735943 16.2131565,179.747281 16.261842,180.09931 C16.3907154,181.027116 16.7744718,181.071865 17.5190736,181.191197 C19.4206723,181.489527 21.1933976,181.116615 23.0434469,181.191197 C23.9856547,181.226997 25.8042016,181.507427 26.5888975,180.827235 C27.5482884,180.000861 27.8804954,179.192387 27.4480535,177.411358 C27.4537812,177.417325 27.0127478,146.671449 27.5425607,138.610576 Z" id="Path" fill="#CA8161" fill-rule="nonzero"></path>
                    <path d="M30.1862922,138.610576 C29.6589422,130.55567 31.3670975,131.223929 30.9801831,125.633227 C31.1693413,122.250166 32.5221085,121.382026 34.2073355,121.158279 C36.3711899,120.883816 38.0306225,124.517473 38.0306225,124.517473 C37.3972294,129.463782 38.8904322,130.409488 38.7987192,138.714992 C38.6812119,148.261547 34.2130675,175.937608 34.2130675,175.937608 C34.7117572,177.244293 36.6033385,177.84692 39.7158495,178.735943 C39.7158495,178.735943 41.5157178,179.747281 41.4641292,180.09931 C41.3351578,181.027116 40.9539755,181.071865 40.205941,181.191197 C38.3028956,181.489527 36.5288216,181.116615 34.6802308,181.191197 C33.7373062,181.226997 31.9145097,181.507427 31.1292168,180.827235 C30.169096,180.000861 29.8366362,179.192387 30.2694071,177.411358 C30.2722732,177.417325 30.7107761,146.671449 30.1862922,138.610576 Z" id="Path" fill="#CA8161" fill-rule="nonzero"></path>
                    <path d="M19.665028,125.161098 C20.3437939,129.169733 21.707228,129.878015 24.7764302,130.059549 C27.8456324,130.241083 26.4821984,129.574465 26.8422394,126.43779 C26.815679,124.896237 29.3595755,95.454941 29.5602541,93.9133872 C31.0594413,82.4410133 31.7086957,74.8374037 31.7086957,74.8374037 L31.7086957,65.0434783 L20.2965754,65.0434783 C18.9862621,69.4270857 17.073913,74.6290856 17.073913,84.1968371 C17.073913,99.014204 19.4230332,122.884479 19.665028,125.161098 Z" id="Path" fill="#CA8161" fill-rule="nonzero"></path>
                    <path d="M37.291307,125.160422 C36.6231207,129.169607 35.2780327,129.877986 32.2566685,130.059545 C29.2353044,130.241104 30.5803925,129.574395 30.223058,126.437289 C30.2521096,124.895524 27.7449584,95.4501867 27.5503129,93.9084213 C26.0599669,82.4344725 25.4150219,74.829819 25.4150219,74.829819 L16.2608696,67.126945 L16.7896083,65.0434783 L36.6666981,65.0434783 C37.9565882,69.4276875 39.8391304,74.6304015 39.8391304,84.2083956 C39.8391304,99.0099384 37.5266248,122.88349 37.291307,125.160422 Z" id="Path" fill="#CA8161" fill-rule="nonzero"></path>
                    <path d="M42.2746794,74.6562984 C41.9154993,65.0311829 37.9971708,49.6955008 38.7125626,47.9438659 C41.6334984,40.9077378 39.6357445,34.8983282 39.5555969,32.5963485 L35.5482155,31.7086957 C35.5482155,31.7086957 35.3790149,40.5408413 28.0380858,40.5408413 C20.6971567,40.5408413 20.5427983,31.7146133 20.5427983,31.7146133 C17.3220511,32.0844687 16.5443222,32.6022662 16.5443222,32.6022662 C16.4730799,34.7089622 14.5020419,42.070563 18.0285376,47.9497836 C19.3643314,50.180751 15.2708655,65.0726067 14.819664,76.2392793 C14.7840428,77.1269321 11.7859278,113.816582 12.2430662,119.642544 C12.2430662,119.642544 26.9249243,125.264345 43.9043478,118.982722 C43.8806004,118.976804 42.3370164,76.2333616 42.2746794,74.6562984 Z" id="Path" fill="#B6BDE0" fill-rule="nonzero"></path>
                    <path d="M28.047088,47.1565217 L28.047088,47.1565217 C26.6696898,47.1565217 22.6860097,52.4942891 17.8869565,47.3890198 C22.4326616,53.2628243 26.2124984,48.8647365 28.05,48.2608874 C29.8875016,48.8647365 33.6702504,53.2628243 38.2130435,47.3890198 C33.4052541,52.4942891 29.4244861,47.1565217 28.047088,47.1565217 Z" id="Path" fill="#DAD6D2" fill-rule="nonzero"></path>
                    <path d="M41.1148267,9.89894011 C39.9503096,5.12799171 33.4493933,1.06374005 28.01401,4.5763508 C21.7401744,8.65849352 16.7589528,20.1445518 27.0998641,24.9721552 C29.0446075,25.866708 31.0330204,23.8986918 32.63132,23.7466178 C32.9457396,23.7167994 32.8176428,24.8528815 33.1175059,24.7872809 C39.3505834,23.4365062 42.5821182,15.874553 41.1148267,9.89894011 Z" id="Path" fill="#1A172E" fill-rule="nonzero"></path>
                    <path d="M36.0451106,6.0264277 C35.383547,4.8337712 36.0451106,2.90483187 36.8223737,1.96165964 C37.8696022,0.686855885 39.5754276,0.543858805 41.0201876,1.18582442 C42.0838814,1.64056627 43.0444142,2.31593641 43.8414746,3.16952859 C44.4911716,3.90581143 45.4494005,4.94634337 45.5265334,5.97774784 C45.5858665,6.76879552 44.9569361,7.69979778 44.4229385,8.21093628 C43.2659439,9.32448801 41.3227862,9.71696936 39.8008933,9.75652174 L36.0451106,6.0264277 Z" id="Path" fill="#1A172E" fill-rule="nonzero"></path>
                    <path d="M37.4061419,1.19255406 C38.4134142,0.372560185 39.9488902,0.135453522 41.1680581,0.405491665 C41.7853205,0.517829984 42.3585141,0.821157016 42.8171593,1.27817591 C43.0368941,1.51306014 43.2066117,1.79616715 43.3146535,2.10804923 C43.4313497,2.46700237 43.4252078,2.85888699 43.6217487,3.19149494 C43.6420801,3.22905666 43.6795188,3.25217391 43.7200192,3.25217391 C43.7605196,3.25217391 43.7979583,3.22905666 43.8182897,3.19149494 C44.0639658,2.63495292 43.735374,1.92033978 43.4374916,1.45271276 C43.1393209,0.986368375 42.7270443,0.617186644 42.2459622,0.385732777 C41.1927062,-0.0853499166 40.0150096,-0.126353419 38.935476,0.270472594 C38.3685769,0.452957879 37.8449099,0.764060138 37.4,1.18267461 C37.4,1.18267461 37.4,1.18267461 37.4,1.18267461 L37.4061419,1.19255406 Z" id="Path" fill="#A34D35" fill-rule="nonzero"></path>
                    <path d="M43.0913043,9.75652174 C43.3974139,9.65610206 43.6926449,9.52733732 43.9728358,9.37204264 C44.2744116,9.22611987 44.5637079,9.05785777 44.8381029,8.86878139 C45.3817186,8.48376749 45.8093681,7.96711618 46.0774516,7.371501 C46.3375833,6.80496449 46.4091595,6.17501909 46.2823832,5.56788768 C46.1685323,5.04899719 45.8432439,4.28316485 45.3065181,4.0706073 C45.2284489,4.04247468 45.1471268,4.12999838 45.169897,4.20501869 C45.2937621,4.45966274 45.4441632,4.70158888 45.618795,4.92708919 C45.7706077,5.16890139 45.8804721,5.43283584 45.9440833,5.70855076 C46.0525598,6.30175746 45.9614024,6.91274916 45.6838526,7.45277301 C45.4327199,7.97520609 45.0598628,8.43510792 44.5941366,8.79688692 C44.3454541,8.98536865 44.0847113,9.15867253 43.8134445,9.31577741 C43.5700768,9.44011691 43.3363483,9.58114512 43.1140745,9.73776666 L43.0913043,9.75652174 Z" id="Path" fill="#A34D35" fill-rule="nonzero"></path>
                    <path d="M45.6928842,8.11821685 C46.3637538,6.95140432 46.6689562,5.32336485 45.851244,4.14738887 C45.5020753,3.65885565 45.069376,3.24438091 44.5757281,2.92559565 C44.1870269,2.66901907 43.6054147,2.31469903 43.136094,2.4826956 C43.1098922,2.48903044 43.0913043,2.51374902 43.0913043,2.54225802 C43.0913043,2.57076703 43.1098922,2.5954856 43.136094,2.60182044 C43.5934022,2.72831933 44.0336408,2.91615732 44.4461611,3.16079084 C44.9122378,3.46454927 45.3196785,3.85946914 45.6468159,4.32454889 C45.9552333,4.81678295 46.1038372,5.40232923 46.0700684,5.99229664 C46.0741962,6.72488806 45.9431252,7.45125414 45.6842464,8.13043478 C45.6842464,8.13043478 45.6842464,8.13043478 45.6842464,8.13043478 L45.6928842,8.11821685 Z" id="Path" fill="#A34D35" fill-rule="nonzero"></path>
                    <path d="M38.2101392,15.36251 C38.3080101,11.5822807 35.8997929,9.99440388 35.8997929,9.99440388 C35.4355931,9.63148611 34.9524595,9.29417553 34.45249,8.98393684 L34.4791821,8.92679733 C34.3724138,8.88469454 34.2626798,8.84860643 34.1529458,8.80951098 C34.0432118,8.77041553 33.9542382,8.69222463 33.8563673,8.63809246 L33.8267095,8.69523197 C33.2696004,8.5158236 32.7032894,8.36724237 32.1302807,8.2501453 C32.1302807,8.2501453 29.3661694,7.44718488 26.616887,10.0004186 C24.8641083,11.6303981 24.8789372,12.7701809 24.1404569,14.7249535 C23.4405317,16.5864984 23.2180978,16.9203134 22.8799984,18.5442783 C22.4469938,20.6073152 23.3041056,22.8838734 24.3628907,24.7935358 C25.2834223,26.2608132 26.9703306,27.0400488 28.6662442,26.7813891 C30.789746,26.3483318 33.0437423,25.5122906 34.301235,23.8251715 C35.2858755,22.5019409 35.3926438,22.1109864 36.3150028,20.3516911 C37.2907459,18.4901461 38.1448919,17.768384 38.2101392,15.36251 Z" id="Path" fill="#CA8161" fill-rule="nonzero"></path>
                    <path d="M35.2308784,20.8391811 C35.465472,20.9801837 36.5030976,22.7652174 36.5030976,22.7652174 C42.4280898,16.4650986 43.005551,9.22296202 38.4580443,5.72789611 C31.8623549,0.663800612 24.2470857,3.56185526 21.2755668,12.6550267 C20.9206688,13.7410472 21.2364678,17.4011162 22.4786109,17.9681269 C23.9162486,15.0250714 26.5839989,11.0139958 32.4999683,10.9869953 C36.8489728,10.9659949 36.3256486,16.8251054 35.2308784,20.8391811 Z" id="Path" fill="#1A172E" fill-rule="nonzero"></path>
                    <path d="M35.6590856,20.3630437 C36.4636746,19.2463701 38.7111599,18.9913817 38.1130821,21.0781837 C37.6196008,22.798623 34.5031594,25.3045439 35.0180964,21.8490108 L35.6590856,20.3630437 Z" id="Path" fill="#C07452" fill-rule="nonzero"></path>
                    <path d="M23.7679181,16.2089095 C24.8396267,14.4027958 26.4705655,12.9713646 28.4284051,12.1185252 C29.4121295,11.7165811 30.4410661,11.4283848 31.4940371,11.259868 C32.6137645,11.0599068 33.7637549,11.065788 34.880456,10.8599455 C34.9281276,10.8463382 34.9608696,10.8038331 34.9608696,10.7555539 C34.9608696,10.7072748 34.9281276,10.6647697 34.880456,10.6511624 C33.9756215,10.5283748 33.0565659,10.544251 32.1567947,10.6982121 C31.2757822,10.8125511 30.408233,11.0095105 29.5662902,11.2863335 C27.9754237,11.7912728 26.5256627,12.6455571 25.3294838,13.7829088 C24.6363193,14.4702836 24.05102,15.2530273 23.5923932,16.1059882 C23.5631442,16.1555218 23.5807581,16.2187164 23.631735,16.2471373 C23.6827119,16.2755583 23.7477479,16.258443 23.7769969,16.2089095 L23.7679181,16.2089095 Z" id="Path" fill="#1A172E" fill-rule="nonzero"></path>
                    <path d="M34.176837,10.6433842 C34.0722217,10.8094981 34.2780776,11.0163568 34.3590701,11.1605311 C34.4829433,11.3935893 34.588947,11.6344785 34.6762907,11.8814025 C34.8726611,12.445506 35.0027803,13.0276761 35.0643797,13.6177622 C35.1993672,14.7304114 35.1453722,15.8461949 35.2634862,16.95571 C35.2672049,17.0159682 35.3166267,17.0652122 35.381087,17.0728875 C35.4455472,17.0805627 35.5067462,17.0444904 35.5267118,16.9870522 C35.813289,15.7875553 35.8510849,14.548322 35.6380765,13.3356821 C35.5617524,12.7056566 35.3913837,12.088563 35.1318734,11.5021614 C35.0677544,11.3705241 34.4063157,10.2798143 34.176837,10.6433842 L34.176837,10.6433842 Z" id="Path" fill="#BF5B41" fill-rule="nonzero"></path>
                    <path d="M34.2938012,11.4025119 C34.3051614,11.7029297 34.3960646,11.996018 34.5583631,12.2555083 C34.7248494,12.6045093 34.8660645,12.9635767 34.981054,13.3302837 C35.2131214,14.0442261 35.3479865,14.7826791 35.3824584,15.5281709 C35.4147658,16.3122629 35.3256567,17.0966033 35.1178964,17.8568509 C34.8928667,18.681414 34.4701758,19.4206775 34.1539178,20.2111208 C34.1174265,20.2935771 34.2542689,20.3675034 34.3150878,20.2992637 C34.878397,19.6036077 35.2717987,18.8009685 35.4676047,17.9478372 C35.6882709,17.1583319 35.790613,16.3439994 35.7716989,15.5281709 C35.7465483,14.7425118 35.6063748,13.9637805 35.3550899,13.2137075 C35.2352543,12.8542536 35.0920638,12.5019745 34.9263171,12.1588354 C34.8262473,11.8418593 34.6111921,11.5673858 34.3181287,11.3826087 L34.2938012,11.4025119 Z" id="Path" fill="#1A172E" fill-rule="nonzero"></path>
                    <path d="M26.0451463,21.1391304 C27.0527466,21.6260563 28.136652,22.0078346 29.2695652,22.2748507 C29.2695652,22.2748507 28.5488496,23.1050844 27.145021,22.6049733 C25.7411923,22.1048622 26.0451463,21.1391304 26.0451463,21.1391304 Z" id="Path" fill="#F0EFEE" fill-rule="nonzero"></path>
                    <path d="M26.8932136,23.6018188 C26.9550671,23.5943994 27.0173855,23.5943994 27.079239,23.6018188 C27.1374318,23.6041787 27.1954317,23.6111197 27.2528627,23.6225966 C27.3096335,23.6389832 27.3652078,23.6608212 27.4190454,23.6878982 L27.4909752,23.7146125 C27.5195603,23.7334442 27.549432,23.7493322 27.5802674,23.7621045 C27.5976025,23.7666391 27.6156742,23.7603007 27.6282214,23.7452853 C27.6407686,23.7302699 27.646065,23.7086434 27.6422759,23.6878982 C27.6122182,23.6131651 27.5648715,23.5503236 27.5058572,23.5068347 C27.4453184,23.4589459 27.3767369,23.4275355 27.3049498,23.4148188 C27.2360987,23.394068 27.1647253,23.3880388 27.094121,23.3970093 C27.0198802,23.4079554 26.9467527,23.4278446 26.8758513,23.4563744 C26.8454807,23.4664716 26.8262724,23.5022288 26.8312052,23.5394855 C26.8359858,23.5763161 26.8620791,23.6037952 26.8932136,23.6047871 L26.8932136,23.6018188 Z" id="Path" fill="#DAD6D2" fill-rule="nonzero"></path>
                    <path d="M32.5217391,19.1561322 L32.5217391,19.1561322 C32.5953062,18.8186583 32.8142758,18.6305461 33.0249501,18.7238341 C33.2356245,18.8171221 33.3673906,19.1605423 33.32776,19.5130435" id="Path" stroke="#540806" stroke-width="0.63" stroke-linecap="round" stroke-linejoin="round"></path>
                    <path d="M32.6207458,17.7296791 C32.732262,17.7905731 32.8572458,17.8086456 32.9779832,17.781335 C33.066708,17.7744492 33.1557223,17.7744492 33.2444472,17.781335 C33.2854416,17.781335 33.3235079,17.781335 33.3645023,17.781335 C33.2795853,17.781335 33.3937841,17.781335 33.4142813,17.781335 C33.4787012,17.781335 33.5519056,17.8467659 33.6133972,17.8536533 C33.5577619,17.8536533 33.5606901,17.8226598 33.5899718,17.8536533 L33.642679,17.8846469 L33.7217397,17.9363029 C33.7832314,17.9845151 33.8447231,18.0292836 33.9032866,18.0809395 L33.9384247,18.1084894 C33.9999164,18.1601453 33.8945021,18.0637209 33.9384247,18.1084894 L34.0204136,18.1876952 L34.2283141,18.4080939 C34.3035849,18.4934051 34.3859923,18.5695539 34.4742808,18.6353801 C34.6174415,18.7487477 34.8111402,18.7092619 34.9135071,18.5458431 C35.0657722,18.2531261 34.8168773,17.9707402 34.6470431,17.781335 C34.4199524,17.4867128 34.1327249,17.2650693 33.8125132,17.1373574 C33.6368213,17.0835089 33.4548357,17.0637346 33.2737289,17.078814 C33.0482594,17.1029201 32.6880938,17.1339137 32.5475414,17.3749748 C32.4930029,17.4963838 32.5275169,17.6467203 32.6266022,17.7193479 L32.6207458,17.7296791 Z" id="Path" fill="#1A172E" fill-rule="nonzero"></path>
                    <path d="M33.9985343,20.7858612 C33.2317259,19.7692671 29.9588989,20.5331014 31.1563424,22.1496527 C32.3537859,23.766204 34.7708992,21.8024553 33.9985343,20.7858612 Z" id="Path" fill="#C07452" fill-rule="nonzero"></path>
                    <path d="M26.8053743,17.073913 L26.8053743,17.073913 C26.8840233,16.7588148 26.7713849,16.4110503 26.5537894,16.2971594 C26.3361939,16.1832684 26.0960403,16.3463792 26.0173913,16.6614775" id="Path" stroke="#540806" stroke-width="0.63" stroke-linecap="round" stroke-linejoin="round"></path>
                    <path d="M28.4346386,15.1259682 C28.3086425,14.7449372 28.0755669,14.4108055 27.7648449,14.1657677 C27.4852803,13.9769074 27.1613704,13.8688688 26.8271337,13.8529989 C26.609783,13.8003163 26.3821508,13.8144561 26.1725626,13.8936588 C26.0493634,13.9648839 25.9900966,14.1138601 26.0294703,14.253343 C26.0995955,14.4141249 26.2510058,14.52144 26.4222129,14.5317073 C26.5318156,14.5536011 26.6475072,14.5567288 26.7601543,14.5723673 C26.8728014,14.5880057 26.6931749,14.5723673 26.7601543,14.5723673 L26.8149556,14.5723673 L26.9397808,14.5942611 C27.0771138,14.6221846 27.2124084,14.6598061 27.3447015,14.7068579 C27.3447015,14.7068579 27.3934138,14.725624 27.3934138,14.7287517 C27.3386125,14.7037302 27.329479,14.7006025 27.3599241,14.7287517 L27.3781912,14.7287517 C27.4147254,14.7506455 27.4543042,14.7694117 27.4908384,14.7944332 C27.5247817,14.8123018 27.556476,14.8343586 27.5852184,14.8601146 C27.51215,14.7850501 27.6095745,14.8851362 27.6278416,14.9007746 C27.694378,14.9639138 27.7564409,15.0318532 27.8135571,15.1040744 C27.8135571,15.1259682 27.8470468,15.1447343 27.8622694,15.1635005 C27.8257352,15.1165851 27.9018481,15.2197988 27.9079372,15.2291819 L28.0327623,15.379311 C28.1144029,15.4564365 28.2354553,15.4698567 28.3312329,15.4124002 C28.4270106,15.3549438 28.4751233,15.2400424 28.4498612,15.1290959 L28.4346386,15.1259682 Z" id="Path" fill="#1A172E" fill-rule="nonzero"></path>
                    <path d="M24.3560355,16.2628305 C25.5331544,16.1709019 26.9884546,19.3409542 25.1287612,19.5070186 C23.2690679,19.6730831 23.173765,16.3517936 24.3560355,16.2628305 Z" id="Path" fill="#C07452" fill-rule="nonzero"></path>
                    <path d="M29.1052332,15.4478261 C29.1423139,15.7131907 29.1944777,15.9767025 29.261523,16.2373427 C29.3179302,16.5061904 29.3396966,16.7799139 29.3263979,17.0531765 C29.3263979,17.0794937 29.367682,17.0821254 29.3765286,17.0531765 C29.4530201,16.7944312 29.4530201,16.5224052 29.3765286,16.2636599 C29.3145319,15.9862566 29.2287628,15.7135106 29.1199776,15.4478261 L29.1052332,15.4478261 Z" id="Path" fill="#BDB7B2" fill-rule="nonzero"></path>
                    <path d="M28.4340568,18.7 C28.3661758,18.9910864 28.2685548,19.266741 28.1442588,19.5183093 C28.049906,19.7110385 27.9375812,19.8816513 27.8342424,20.058583 C27.7668476,20.1723248 27.6095929,20.3745326 27.6500298,20.5325073 C27.6904667,20.6904821 27.8297494,20.8484569 27.9443207,20.9274442 C28.0924018,21.0519474 28.2595974,21.12455 28.4318103,21.1391304 C28.4377826,21.1357731 28.4416992,21.1276393 28.4416992,21.1185937 C28.4416992,21.1095481 28.4377826,21.1014143 28.4318103,21.098057 C28.2391282,21.059932 28.0570171,20.9509435 27.9038838,20.7821075 C27.8544609,20.728396 27.7331501,20.6051757 27.7331501,20.5072314 C27.7331501,20.409287 27.8117775,20.3050237 27.8432284,20.2418337 C27.9510602,20.0333071 28.067878,19.8468968 28.1824493,19.6352106 C28.314621,19.3595534 28.4076836,19.050581 28.4565217,18.725276 C28.4565217,18.7165513 28.4514928,18.7094785 28.4452893,18.7094785 C28.4390857,18.7094785 28.4340568,18.7165513 28.4340568,18.725276 L28.4340568,18.7 Z" id="Path" fill="#BDB7B2" fill-rule="nonzero"></path>
                    <path d="M17.0614459,32.5217391 C10.5180178,32.6254438 11.8857509,40.130698 11.4609704,43.4048022 C11.0572782,46.5189049 11.1958591,53.1263731 10.6264724,56.201957 C10.3173505,58.0075078 11.2903735,59.7898271 12.9913854,60.5338487 C16.4498824,61.9916399 16.6216022,59.4997651 16.9590165,58.2760501 C18.1399667,54.0034182 17.6579462,42.8862789 17.862805,39.0580956 C18.0526005,34.9010203 17.0614459,32.5217391 17.0614459,32.5217391 Z" id="Path" fill="#CA8161" fill-rule="nonzero"></path>
                    <path d="M11.0030547,56.8624755 C12.495903,53.6142768 16.1800083,56.2085976 18.109362,57.3801288 C20.7283942,58.9724424 26.5484658,64.3184991 29.4032109,62.6959133 C30.515899,62.1191859 31.7525945,61.8502109 32.9941951,61.9148926 C33.480171,61.9451647 34.3968323,62.1237702 34.4492129,62.4597908 C34.533604,63.0470699 34.0563581,63.0652332 33.2415481,63.0319339 C33.0174753,63.0319339 32.3685374,63.2105394 31.9145718,63.1651312 C33.1920775,63.661594 35.6568778,63.119723 37.1526362,63.8371723 C38.0663874,64.2761181 38.520353,64.8089074 37.9819964,65.8078874 C37.3243283,67.0187723 36.3611064,66.4133299 35.3193136,66.8522756 C34.9002685,67.0248267 32.8545133,68.4930246 25.6085242,66.2468332 C22.989492,65.4355403 15.7638732,62.4809813 13.1186507,61.4880557 C9.93507153,60.2923069 10.4035873,58.1672039 11.0030547,56.8624755 Z" id="Path" fill="#CA8161" fill-rule="nonzero"></path>
                    <path d="M39.0509538,32.5217391 C45.5763655,32.6254438 44.2130259,40.130698 44.633439,43.4048022 C45.0388373,46.5218679 44.8976986,53.1263731 45.4742652,56.201957 C45.7808306,58.0080732 44.809909,59.7900048 43.113946,60.5338487 C39.6695617,61.9916399 39.4953905,59.4997651 39.1590601,58.2760501 C37.9849064,54.0034182 38.4233372,44.3499961 38.2311483,40.5336647 C38.1366461,37.8387538 38.4124201,35.1436264 39.0509538,32.5217391 Z" id="Path" fill="#CA8161" fill-rule="nonzero"></path>
                    <path d="M28.7150724,54.9212552 C27.9447996,54.0720869 25.41305,52.4151731 24.4308028,51.7287373 C23.2365813,50.9032392 23.0484914,50.5925679 22.2155219,49.4534396 C21.3825524,48.3143113 20.8779938,47.8734539 19.9763566,46.8112538 C19.2239971,45.9236214 18.3940131,44.6631834 17.2893582,44.1483566 C16.0025846,43.5566016 14.5456343,44.0980574 13.6439971,45.1602575 C11.8526649,47.2787402 10.3957146,49.8321628 12.2288446,52.4181318 C13.1245108,53.6696935 14.7247676,54.4892741 16.0115412,55.2940608 C16.9682756,55.9001669 17.8856514,56.565228 18.7582507,57.2853162 C20.8869505,59.022117 22.8872715,60.5695561 25.5712843,61.4039306 C27.7686519,62.0844488 30.7034512,61.8832521 32.6888445,60.6819896 C34.2204335,59.7558931 32.7366133,57.44509 31.2617498,57.1314599 L28.7150724,54.9212552 Z" id="Path" fill="#D2CBC8" fill-rule="nonzero"></path>
                    <path d="M22.679002,59.6793216 C21.6986342,58.9126839 22.1873191,57.0282767 22.1873191,57.0282767 C21.6626574,56.5162095 21.197957,56.3699046 19.7888656,56.1680039 L19.5130435,55.6793455 C20.031709,54.9829342 20.8022122,53.1424185 21.4467966,53.8007905 C22.1783249,54.5410933 22.7329672,54.8249249 23.2696212,54.947821 C23.2696212,54.947821 24.5018266,53.3209105 25.8689451,53.9119823 C27.9316151,54.8073683 28.5312284,55.6676411 30.7857747,56.4781703 C31.6282315,56.7707801 32.8844214,57.8153971 32.4227192,59.9514487 C31.9610169,62.0875003 30.9926413,64.047986 28.7410931,63.2257524 C26.5435101,62.4357059 23.9921553,60.7180864 22.679002,59.6793216 Z" id="Path" fill="#D28D82" fill-rule="nonzero"></path>
                    <path d="M23.6552922,55.5336277 C23.7468588,55.1642021 23.7150202,54.7757828 23.5644483,54.425364 C24.0398646,53.9808733 24.8907689,53.3971087 25.8022358,53.7912239 C27.8855887,54.697985 28.4912146,55.5691869 30.7683677,56.3900132 C31.619272,56.6863404 32.8880582,57.7442284 32.4217263,59.9074167 C31.9553944,62.0706051 30.9773086,64.0559972 28.7031836,63.2233178 C26.486593,62.4232344 23.9096551,60.6837939 22.571222,59.6318325 C21.8111615,59.0391781 21.9262304,57.7708978 22.0201024,57.216766 C22.6923471,56.801908 23.4705763,56.2714823 23.6552922,55.5336277 Z" id="Path" fill="#CA8161" fill-rule="nonzero"></path>
                    <path d="M22.1961634,56.9130435 C21.6638227,56.4172853 21.1865516,56.2756401 19.7486196,56.0801697 L19.5130435,55.6892289 C19.971527,54.9422577 20.5421933,54.2593266 21.2079676,53.6608696 C21.2996442,53.6757478 21.3823144,53.721073 21.4404843,53.7883502 C21.8106759,54.1797641 22.260914,54.4994208 22.7652174,54.7288744 C21.9728251,56.1538252 22.0615485,56.5221027 22.1961634,56.9130435 Z" id="Path" fill="#DAD6D2" fill-rule="nonzero" style="mix-blend-mode: multiply;"></path>
                    <path d="M11.1921515,53.9786406 C7.72143854,50.1323154 11.0041545,43.3199041 16.1263484,43.9444962 C17.7460144,44.1420416 18.6368308,44.81602 19.6520143,45.5945813 C20.7279353,46.4050985 21.1299596,46.4486747 21.9831765,47.1604191 C23.0503831,48.1073919 23.6349234,49.4876834 23.5739199,50.9166869 C23.5346729,52.5370618 22.6578941,54.0198811 21.2601113,54.8298289 C19.9181023,55.6345359 18.174069,55.895993 16.7626458,55.9628099 C15.5131891,56.0209114 15.9499205,56.3114194 14.7178174,55.8146508 C13.4365459,55.2888314 12.2854261,55.198774 11.1921515,53.9786406 Z" id="Path" fill="#CA8161" fill-rule="nonzero"></path>
                    <path d="M11.1290081,54.707298 C10.4492819,53.9522622 9.97621174,53.0310964 9.75652174,52.0347826 C10.7828831,53.7865367 12.4317743,55.0767049 14.3669804,55.6422171 C14.8596245,55.2316815 15.517871,55.0862745 16.1350837,55.2516424 C16.1776886,55.3316025 17.1302124,55.6483679 17.2458542,55.7191019 C18.3809705,56.4325928 18.7522417,56.4172158 19.5130435,56.4571959 L19.5130435,56.4571959 C19.3456671,56.497176 19.1782907,56.5340807 19.0109143,56.5617592 L18.9530934,56.5617592 C18.7847026,56.5925131 18.6173262,56.6201917 18.4509642,56.6447948 L18.4114025,56.6447948 C18.0583905,56.6940011 17.7114649,56.7278304 17.3767121,56.7524335 L17.1423852,56.7678105 L17.0023977,56.7678105 C15.6877322,56.8293183 16.1472565,57.1368575 14.8508503,56.6109655 C14.184388,56.3372556 13.3961973,56.1004505 12.6232228,55.7836851 C12.0575095,55.5320056 11.5489416,55.1656486 11.1290081,54.707298 Z" id="Path" fill="#DAD6D2" fill-rule="nonzero"></path>
                    <g id="Group" opacity="0.27" transform="translate(18.700000, 46.343478)" fill="#6C2F34" fill-rule="nonzero">
                        <path d="M1.15126957,0.243913043 C1.05272793,0.251242958 0.956166006,0.271360026 0.865078261,0.303536232 C0.797537493,0.326258789 0.732285942,0.353446935 0.669947826,0.38484058 C0.542037041,0.449479143 0.431359219,0.535254455 0.344730435,0.636884058 C0.223477872,0.807741601 0.192851715,1.01289759 0.260173913,1.20330435 C0.287500715,1.32976395 0.388762083,1.43651539 0.530104348,1.48786957 C0.606850255,1.5056588 0.68918038,1.49153353 0.751252174,1.44992754 C0.811648875,1.40964845 0.847405003,1.34906168 0.848817391,1.2846087 C0.849183986,1.24673893 0.84147586,1.20911593 0.826052174,1.17349275 L0.80653913,1.10302899 C0.80510026,1.09041006 0.80510026,1.07770588 0.80653913,1.06508696 C0.808334538,1.05885178 0.808334538,1.05235112 0.80653913,1.04611594 C0.80653913,1.01630435 0.80653913,1.11657971 0.80653913,1.07863768 C0.803289199,1.0488876 0.803289199,1.01895298 0.80653913,0.989202899 C0.80653913,0.989202899 0.80653913,0.921449275 0.80653913,0.972942029 C0.80653913,1.02443478 0.80653913,0.972942029 0.80653913,0.953971014 C0.80653913,0.935 0.829304348,0.888927536 0.842313043,0.856405797 L0.842313043,0.832014493 C0.842313043,0.802202899 0.813043478,0.888927536 0.842313043,0.856405797 C0.871582609,0.823884058 0.865078261,0.821173913 0.878086957,0.802202899 L0.91386087,0.756130435 C0.91386087,0.756130435 0.868330435,0.804913043 0.91386087,0.756130435 L0.939878261,0.73173913 L1.01142609,0.674826087 L1.02768696,0.674826087 L1.05045217,0.674826087 L1.25533913,0.563710145 C1.33397432,0.526387074 1.37233352,0.44944838 1.3485874,0.376678039 C1.32484129,0.303907697 1.24500923,0.253752109 1.15452174,0.254753623 L1.15126957,0.243913043 Z" id="Path"></path>
                    </g>
                    <g id="Group" opacity="0.27" transform="translate(16.260870, 51.221739)" fill="#6C2F34" fill-rule="nonzero">
                        <path d="M0.586972222,1.52526957 C0.644111111,1.41469565 0.586972222,1.27485217 0.561,1.15777391 C0.561,1.15777391 0.561,1.0472 0.540222222,1.04394783 C0.519444444,1.04069565 0.540222222,1.08947826 0.540222222,1.0602087 L0.540222222,1.0602087 C0.538861059,1.03964685 0.538861059,1.01897923 0.540222222,0.998417391 C0.540222222,0.965895652 0.540222222,0.933373913 0.540222222,0.900852174 C0.540222222,0.985408696 0.540222222,0.936626087 0.540222222,0.900852174 L0.540222222,0.861826087 C0.540222222,0.835808696 0.576583333,0.738243478 0.540222222,0.83906087 C0.540222222,0.80653913 0.566194444,0.774017391 0.573986111,0.741495652 C0.581777778,0.708973913 0.545416667,0.813043478 0.573986111,0.761008696 C0.583389604,0.737560242 0.593793521,0.714762093 0.605152778,0.692713043 C0.603882936,0.684113463 0.603882936,0.675295233 0.605152778,0.666695652 C0.633722222,0.61466087 0.571388889,0.712226087 0.605152778,0.666695652 L0.683069444,0.569130435 L0.662291667,0.588643478 L0.683069444,0.572382609 C0.71005837,0.551492489 0.736072912,0.528690177 0.760986111,0.504086957 C0.802541667,0.461808696 0.711638889,0.543113043 0.760986111,0.504086957 C0.8003273,0.477166367 0.833433467,0.437952482 0.857083333,0.39026087 C0.903652641,0.274617976 0.872117367,0.133590662 0.784361111,0.0650434783 C0.573986111,-0.0585391304 0.355819444,0.16586087 0.236347222,0.367495652 C0.108507023,0.596286405 0.0775067384,0.88863257 0.153236111,1.15126957 C0.178623305,1.24526191 0.211696999,1.33571884 0.251930556,1.4212 C0.275249655,1.4715325 0.304101148,1.51751243 0.337638889,1.5577913 C0.371931519,1.5998084 0.419400903,1.62048918 0.467115861,1.61419998 C0.514830818,1.60791078 0.55782085,1.57530674 0.584375,1.52526957 L0.586972222,1.52526957 Z" id="Path"></path>
                    </g>
                    <path d="M17.8875466,55.2876472 C17.8438417,54.0953958 20.2421493,52.7012309 20.3240961,54.5793473 C20.4060428,56.4574637 17.9312515,56.4766936 17.8875466,55.2876472 Z" id="Path" fill="#D18175" fill-rule="nonzero"></path>
                    <path d="M21.2511341,47.1565217 C21.5509706,47.3647499 21.8347486,47.6063581 22.0989252,47.8783299 C22.3566354,48.1457895 22.5811257,48.4584688 22.7652174,48.806369 C22.6367393,49.0239396 22.4876138,49.221757 22.3210226,49.3956002 C21.3394955,50.2499854 20.9191821,48.1523224 21.2511341,47.1565217 Z" id="Path" fill="#D18175" fill-rule="nonzero"></path>
                    <path d="M20.33519,49.6314812 C20.4116979,49.7037846 20.5098881,49.7439121 20.6116936,49.7444805 C20.6968345,49.735592 20.7825745,49.735592 20.8677154,49.7444805 C20.9641774,49.7672218 21.0398911,49.8476553 21.062292,49.9511864 C21.0751586,50.0463266 21.0580317,50.143364 21.0136479,50.2267944 C20.980365,50.2984525 20.9189198,50.3921592 20.839553,50.4086957 C20.9131085,50.3933677 20.9782718,50.3479194 21.0213285,50.281916 C21.0882219,50.2068904 21.1297064,50.1098077 21.1390986,50.006308 C21.1406341,49.8889992 21.0866083,49.7789128 20.9957263,49.7141636 C20.9112816,49.6591262 20.8100413,49.642283 20.7141023,49.6673102 C20.6569908,49.6715147 20.5996792,49.6715147 20.5425677,49.6673102 C20.4683412,49.6662816 20.3961058,49.6413211 20.33519,49.5956522 C20.33519,49.5956522 20.3147082,49.5956522 20.33519,49.6121887 L20.33519,49.6314812 Z" id="Path" fill="#BDB7B2" fill-rule="nonzero"></path>
                    <path d="M30.830862,60.2966932 C33.1866443,60.3962596 33.7192825,58.3480373 34.6841184,58.4845854 C35.3202405,58.5756175 37.1951267,60.541342 37.606019,60.990813 C37.6851538,61.0761556 37.5573207,61.3976127 38.1782246,61.7276041 C38.966529,62.142938 41.1336053,60.4133281 40.5553125,59.8329984 C39.9770196,59.2526688 38.8508704,60.5953923 38.4551964,60.2483324 C37.5421024,59.4631805 37.0612063,56.6070483 35.9411444,55.8076727 C34.3371427,54.6697714 33.086204,55.6284532 30.4047514,56.4818792 C27.5345928,57.395045 27.9698343,60.1772136 30.830862,60.2966932 Z" id="Path" fill="#D28D82" fill-rule="nonzero"></path>
                    <path d="M29.9175079,60.20687 C31.0389472,58.9128854 32.8114443,58.0165133 34.1478261,58.8814949 C33.4001999,59.3837423 32.6806097,61.0718516 30.6931701,60.9741924 C30.1953299,60.9629318 29.7071544,60.8182123 29.2695652,60.5521651 C29.5179803,60.5381955 29.7511731,60.4139248 29.9175079,60.20687 L29.9175079,60.20687 Z" id="Path" fill="#DAD6D2" fill-rule="nonzero" style="mix-blend-mode: multiply;"></path>
                    <path d="M29.7116,63.5671945 C31.9952268,63.979406 32.6893292,62.4971385 33.6178038,62.7597116 C34.2187582,62.931937 35.5739105,65.2640379 35.9074402,65.7609504 C35.9705404,65.8541215 35.7962636,66.1562218 36.3551512,66.5599632 C37.0582679,67.0709926 39.4410522,65.6649559 38.9632934,65.018405 C38.4855347,64.371854 37.1814636,65.5379044 36.8599529,65.1454565 C36.0907313,64.2504492 36.2379651,61.2350936 35.2644189,60.2977358 C33.8762142,58.9651067 32.4910142,59.2615602 29.7626811,59.8488205 C26.956224,60.4360808 26.9351906,63.0561651 29.7116,63.5671945 Z" id="Path" fill="#D28D82" fill-rule="nonzero"></path>
                    <path d="M16.3556979,54.4876552 C15.4054122,54.3244171 13.8627818,55.6511606 15.0886503,56.5715455 C16.0896179,57.3286923 19.0830178,56.835505 17.3661683,55.0051546 L16.3556979,54.4876552 Z" id="Path" fill="#D28D82" fill-rule="nonzero"></path>
                    <g id="Group" opacity="0.27" transform="translate(11.382609, 46.343478)" fill="#6C2F34" fill-rule="nonzero">
                        <path d="M3.25217391,0.104534161 C3.02051508,0.0326438459 2.7758848,0.0230692756 2.53994783,0.0766583851 C2.2733614,0.11337816 2.01151705,0.182346091 1.75942609,0.282242236 C1.27749256,0.462651473 0.828509229,0.731475527 0.43253913,1.07670186 C0.383756522,1.11851553 0.43253913,1.19865839 0.497582609,1.16729814 C0.917947693,0.885428675 1.36488268,0.651838962 1.83097391,0.470403727 C2.06086024,0.380536753 2.29677754,0.309482001 2.53669565,0.257850932 C2.77410435,0.205583851 3.01476522,0.195130435 3.25217391,0.13589441 L3.25217391,0.104534161 Z" id="Path"></path>
                        <path d="M3.06354783,1.26486335 C2.60518239,1.04929092 2.09384611,0.999151915 1.60657391,1.122 C1.36447715,1.17847111 1.12811255,1.26016394 0.900852174,1.36591304 C0.660646776,1.46331531 0.43991585,1.60876122 0.250417391,1.79450311 C0.230490508,1.81708787 0.229005554,1.85190208 0.246926744,1.87634006 C0.264847934,1.90077805 0.296769999,1.907469 0.321965217,1.89206832 C0.536608696,1.79450311 0.73173913,1.64815528 0.949634783,1.54362112 C1.16734449,1.44533589 1.39406616,1.37176035 1.62608696,1.32409938 C2.09657514,1.245119 2.57523532,1.23925115 3.04728696,1.30667702 C3.04728696,1.30667702 3.07330435,1.27880124 3.04728696,1.26834783 L3.06354783,1.26486335 Z" id="Path"></path>
                        <path d="M2.40010435,1.93039752 C2.16429662,1.9239526 1.9283733,1.93676607 1.69438261,1.96872671 C1.57611893,1.98605894 1.45885629,2.01048865 1.34314783,2.04190062 C1.22836603,2.07901649 1.11892427,2.13295564 1.01793043,2.20218634 C0.995165217,2.20218634 1.01793043,2.25793789 1.0341913,2.24748447 C1.14476522,2.20915528 1.2585913,2.1812795 1.3594087,2.14295031 C1.46624742,2.10849243 1.57482848,2.08057159 1.68462609,2.05932298 C1.91495952,2.02099895 2.14751916,2.00004063 2.3805913,1.99660248 C2.3939374,1.9919025 2.40295813,1.97855199 2.40295813,1.9635 C2.40295813,1.94844801 2.3939374,1.9350975 2.3805913,1.93039752 L2.40010435,1.93039752 Z" id="Path"></path>
                    </g>
                    <path d="M29.4885296,56.1 C29.4885296,56.1 29.4606614,58.155287 26.0173913,62.0502714 C26.0173913,62.0502714 28.2096892,63.6053907 29.3306098,63.3984247 C29.3306098,63.3984247 29.3987321,59.9863609 31.7086957,59.2016149 C31.7086957,59.2016149 30.9407721,57.0744647 31.0460519,56.5081829 C30.5416202,56.327624 30.020204,56.1909754 29.4885296,56.1 Z" id="Path" fill="#E6DDD9" fill-rule="nonzero"></path>
                    <path d="M26.0173913,61.9183513 C26.3831664,61.4108947 26.7046051,60.9349571 26.9900205,60.4842348 C27.2730128,60.1571858 27.7079932,60.072187 28.0707197,60.2730572 C28.8660034,60.7584505 29.4229791,60.5189058 29.2317785,61.5716418 L29.2317785,61.5716418 C29.0893257,62.1675378 29.0056791,62.7796303 28.9823864,63.3965945 C27.9792759,63.6235316 26.0173913,61.9183513 26.0173913,61.9183513 Z" id="Path" fill="#F3E9E4" fill-rule="nonzero"></path>
                    <path d="M30.805314,56.6407596 C30.7916983,57.0064872 30.8221835,57.3727377 30.8956522,57.726087 C30.6450366,57.65754 30.3361384,57.4252418 29.8757052,57.3033805 C29.6122438,57.2367358 29.3878975,57.0126269 29.2695652,56.6978821 C29.3063155,56.5016709 29.3297197,56.301598 29.3395044,56.1 C29.8398718,56.220524 30.3305851,56.4015557 30.805314,56.6407596 L30.805314,56.6407596 Z" id="Path" fill="#DAD2CF" fill-rule="nonzero"></path>
                    <path d="M30.8268058,56.2716908 C30.7941484,56.5825776 30.8041051,56.8974473 30.8563114,57.2047709 C30.8759818,57.3785429 30.8727034,57.5560926 30.8956522,57.726087 C30.6497721,57.5976468 30.3186536,57.6580892 30.0826087,57.5372043 C30.1504311,57.2931324 30.1639587,57.0333392 30.1219495,56.7816739 C30.1219495,56.5663477 30.0891655,56.3396886 30.0891655,56.1205847 C30.2694776,56.0336987 30.4989656,56.2490249 30.6825561,56.2641355 C30.7120617,56.2641355 30.6825561,56.2641355 30.6825561,56.2641355 L30.8268058,56.2716908 Z" id="Path" fill="#F3E9E4" fill-rule="nonzero"></path>
                    <path d="M27.6434783,61.3437906 C27.8569296,60.9604252 28.1026551,60.5983601 28.3776444,60.2620308 C28.4201168,60.2105184 28.4201168,60.1718841 28.4868592,60.1654451 C28.5536016,60.159006 28.7902336,60.2910065 28.8630435,60.3264212 C29.0020247,60.3573204 29.1380865,60.4015006 29.2695652,60.4584217 C29.0905743,60.6000807 29.0025957,60.922033 28.8660772,61.1023264 C28.7295587,61.2826197 28.583939,61.5723768 28.4231506,61.7913043 C28.3837119,61.7108163 28.2593284,61.6754015 28.180451,61.6335477 C28.0587785,61.5387464 27.9171582,61.4768611 27.7678618,61.4532544 L27.6434783,61.3437906 Z" id="Path" fill="#FAF0ED" fill-rule="nonzero"></path>
                    <path d="M19.9129135,47.9688094 C19.9684552,47.9728379 20.0239741,47.960699 20.0725543,47.9339048 C20.1236699,47.9185478 20.1696288,47.889909 20.2055882,47.8510064 C20.2446412,47.8152264 20.2736599,47.7701451 20.2898431,47.7201142 C20.3170757,47.6723161 20.3294132,47.617691 20.3253188,47.5630435 L20.3253188,47.4539666 C20.3076183,47.3856886 20.2707351,47.3236942 20.2188916,47.2750805 L20.1346368,47.2096344 C20.0710155,47.174542 19.9991493,47.1564886 19.9262169,47.1572775 C19.8706752,47.1532491 19.8151563,47.165388 19.7665762,47.1921821 C19.6652566,47.2278262 19.5855147,47.3062843 19.5492874,47.4059728 C19.5220548,47.4537709 19.5097172,47.5083959 19.5138116,47.5630435 L19.5138116,47.6721203 C19.5315121,47.7403984 19.5683953,47.8023928 19.6202388,47.8510064 L19.7044936,47.9164525 C19.7681149,47.9515449 19.8399811,47.9695983 19.9129135,47.9688094 L19.9129135,47.9688094 Z" id="Path" fill="#2D0000" fill-rule="nonzero"></path>
                    <path d="M17.4737831,52.8470736 C17.5293248,52.8510843 17.5848437,52.838999 17.6334238,52.8123232 C17.7347434,52.7768366 17.8144853,52.698725 17.8507126,52.5994769 C17.8779452,52.55189 17.8902828,52.4975062 17.8861884,52.4431 L17.8861884,52.334505 C17.8658326,52.2676271 17.8293268,52.206538 17.7797612,52.1564091 L17.6955064,52.091252 C17.6318546,52.0558702 17.5602524,52.0364702 17.4870865,52.0347826 C17.4319337,52.0349222 17.377468,52.0467782 17.3274457,52.069533 C17.2760243,52.0864302 17.2301121,52.1164125 17.1944118,52.1564091 C17.153547,52.1905246 17.1241754,52.2359526 17.1101569,52.2867231 C17.0829243,52.3343101 17.0705868,52.3886939 17.0746812,52.4431 L17.0746812,52.5516951 C17.0934323,52.6192441 17.1301597,52.6807039 17.1811084,52.729791 L17.2653632,52.7906042 C17.3277149,52.8289634 17.4001705,52.8485946 17.4737831,52.8470736 L17.4737831,52.8470736 Z" id="Path" fill="#2D0000" fill-rule="nonzero"></path>
                    <path d="M8.95135383,49.5886615 C9.11180136,46.5779953 12.6737364,43.0239842 15.7164049,43.0922734 C16.2735954,43.0922734 17.4667416,43.4248125 17.6738647,43.8701773 C16.947475,44.0483232 16.0518861,44.0097249 15.3750893,44.4164915 C13.3330299,45.6486674 12.5512128,47.6082726 12.9479558,49.9597988 C13.449719,52.9526503 15.8126734,54.7103568 18.5694536,55.4199714 C19.8734544,55.7554795 20.4393966,57.1658014 22.3618497,56.6076109 C27.5720184,55.0755559 24.6285356,51.4948229 24.6285356,51.4948229 C25.8741918,51.5156065 28.9489499,53.8493182 29.7132635,53.9472984 C30.999761,54.1105988 32.8901245,55.0458649 34.1853736,54.8588117 C35.8802829,54.6153456 37.3126417,55.6010864 38.6749871,56.5660435 C39.827292,57.3855147 41.4813602,58.3712555 42.0793918,59.7370409 C42.6249134,60.9810933 41.8926893,62.7477071 41.7293245,64.0066049 C41.5397047,65.4584942 41.5017808,66.6995775 40.1773594,67.5695234 C38.4824501,68.6651208 36.2391019,68.460253 34.6054544,67.3616865 C33.2338108,66.440501 31.7382694,65.7264383 30.1654338,65.24175 C28.4880279,64.7102813 26.5889126,64.4044642 24.9961063,63.617653 C23.4995685,62.8783474 21.6004532,61.4620873 21.0053388,59.8172066 C20.5385823,58.5375251 20.1068326,57.8665087 18.7123978,57.6289808 C17.0933364,57.3558238 15.4275994,57.332071 13.8202069,56.8926444 C11.0196683,56.0939568 8.79382353,52.5161928 8.95135383,49.5886615 Z" id="Path" fill="#F3E9E4" fill-rule="nonzero"></path>
                    <path d="M21.6612918,50.4428469 C21.5679812,50.9253362 21.4034135,51.3580119 21.1836607,51.6986186 C21.0160708,51.9684836 21.3659147,52.0584386 21.4999866,52.029653 C21.8728741,51.9109124 22.0697922,51.0401481 21.8770638,50.5903731 C21.7639407,50.3456955 21.6675765,50.4068649 21.6612918,50.4428469 Z" id="Path" fill="#744245" fill-rule="nonzero"></path>
                    <path d="M21.202208,52.0347826 L21.1391304,52.0347826 C21.1741735,51.8181333 21.3984495,51.3312809 21.9311047,51.2217391 C22.0396357,51.5844741 21.7187197,51.942438 21.202208,52.0347826 Z" id="Path" fill="#F47A64" fill-rule="nonzero"></path>
                    <path d="M22.6543514,52.0347826 C22.5529389,52.0707109 22.4564025,52.1129505 22.3659219,52.1609851 C22.3134874,52.1859236 22.2663309,52.215853 22.2258276,52.2499005 C22.1841748,52.2828413 22.146936,52.3183641 22.1145762,52.3560254 C22.0402275,52.4256111 21.9895112,52.5060253 21.966241,52.591221 C21.9411494,52.6676978 21.9497652,52.7476641 21.9909636,52.8206801 C22.0059899,52.8375578 22.0324861,52.8478261 22.0610107,52.8478261 C22.0895354,52.8478261 22.1160316,52.8375578 22.1310579,52.8206801 C22.1557804,52.7891295 22.1681417,52.7547106 22.1887438,52.72316 C22.2093459,52.6916093 22.2217072,52.6715317 22.2423093,52.6428493 C22.2530129,52.6292547 22.2613141,52.6148085 22.2670318,52.5998257 C22.2670318,52.5998257 22.2670318,52.5998257 22.2670318,52.5998257 L22.2958747,52.5539339 C22.320295,52.5211446 22.3478254,52.489524 22.3782832,52.459282 L22.3988853,52.4392043 C22.3988853,52.4392043 22.4236078,52.4162584 22.3988853,52.4392043 C22.3741628,52.4621502 22.4194874,52.4248631 22.3988853,52.4248631 L22.4236078,52.4047854 C22.4477674,52.3879566 22.4698228,52.3697251 22.4895345,52.3502889 C22.4895345,52.3502889 22.4895345,52.3330795 22.4895345,52.3502889 L22.5142571,52.3302112 C22.581401,52.2729483 22.6574001,52.2210069 22.7408803,52.1753263 C22.7733298,52.1478186 22.7733298,52.1081821 22.7408803,52.0806744 C22.7070838,52.053594 22.651586,52.0453993 22.6049063,52.0605968 L22.6543514,52.0347826 Z" id="Path" fill="#DAD6D2" fill-rule="nonzero"></path>
                    <path d="M45.097389,56.8624755 C43.6049951,53.6142768 39.9220114,56.2085976 37.9961542,57.3801288 C35.3779193,58.9724424 29.5596196,64.3184991 26.7057436,62.6959133 C25.5932216,62.1197037 24.3570342,61.8507573 23.1158527,61.9148926 C22.6271155,61.9451647 21.7136425,62.1237702 21.6612778,62.4597908 C21.5740033,63.0470699 22.0511039,63.0652332 22.868575,63.0319339 C23.0896704,63.0319339 23.7413199,63.2105394 24.1980565,63.1651312 C22.9151214,63.661594 20.4539806,63.119723 18.947041,63.8371723 C18.0335679,64.2761181 17.5797406,64.8089074 18.1179333,65.8078874 C18.7754011,67.0187723 19.7412389,66.4133299 20.7798054,66.8522756 C21.198723,67.0248267 23.2467645,68.4930246 30.4905476,66.2468332 C33.1087824,65.4355403 40.3292924,62.4809813 42.9766187,61.4880557 C46.1650469,60.2923069 45.6966738,58.1672039 45.097389,56.8624755 Z" id="Path" fill="#CA8161" fill-rule="nonzero"></path>
                </g>
            </g>
        </g>
    </g>
</svg>