<?xml version="1.0" encoding="UTF-8"?>
<svg width="75px" height="187px" viewBox="0 0 75 187" version="1.1" xmlns="http://www.w3.org/2000/svg" xmlns:xlink="http://www.w3.org/1999/xlink">
    <!-- Generator: Sketch 60 (88103) - https://sketch.com -->
    <title>pregnant-woman</title>
    <desc>Created with Sketch.</desc>
    <defs>
        <linearGradient x1="0%" y1="49.9882657%" x2="100%" y2="49.9882657%" id="linearGradient-1">
            <stop stop-color="#3C5CA5" offset="0%"></stop>
            <stop stop-color="#244796" offset="100%"></stop>
        </linearGradient>
        <linearGradient x1="0%" y1="50%" x2="100%" y2="50%" id="linearGradient-2">
            <stop stop-color="#3C5CA5" offset="0%"></stop>
            <stop stop-color="#244796" offset="100%"></stop>
        </linearGradient>
        <linearGradient x1="89.836431%" y1="118.353869%" x2="-2.34141392%" y2="-41.6441612%" id="linearGradient-3">
            <stop stop-color="#F78E6B" offset="0%"></stop>
            <stop stop-color="#F9AA8F" offset="100%"></stop>
        </linearGradient>
        <linearGradient x1="-0.00483554932%" y1="49.9877528%" x2="100%" y2="49.9877528%" id="linearGradient-4">
            <stop stop-color="#BDE2F4" offset="0%"></stop>
            <stop stop-color="#9FD8F4" offset="100%"></stop>
        </linearGradient>
        <linearGradient x1="0.00523117087%" y1="49.9851605%" x2="100%" y2="49.9851605%" id="linearGradient-5">
            <stop stop-color="#BDE2F4" offset="0%"></stop>
            <stop stop-color="#9FD8F4" offset="100%"></stop>
        </linearGradient>
    </defs>
    <g id="main" stroke="none" stroke-width="1" fill="none" fill-rule="evenodd">
        <g id="Homepage---proposed" transform="translate(-290.000000, -210.000000)" fill-rule="nonzero">
            <g id="nav-card" transform="translate(167.000000, 210.000000)">
                <g id="pregnant-woman" transform="translate(123.000000, 0.000000)">
                    <path d="M74.1178234,69.7598098 C72.7883836,67.0877396 66.0127966,67 66.0127966,67 L64,70.2583303 C67.2179897,73.2454654 72.5647396,72.5355722 72.5647396,72.5355722 C72.5647396,72.5355722 73.1197082,72.9623058 74.1178234,73.8157729 C75.1159386,74.6692401 75.4596878,72.4278917 74.1178234,69.7598098 Z" id="Path" fill="#F9AA8F"></path>
                    <path d="M42.0276657,56 C42.0276657,56 48.2113934,63.3446752 65.5200324,67.0745859 C66.3040089,67.2494237 66.892621,67.8947621 66.9903762,68.6866311 C67.1187724,69.7188335 65.9466392,70.4713954 64.41831,70.820946 C61.7675493,71.4295753 42.4252798,70.6811257 39,65.511889" id="Path" fill="#B1D6F2"></path>
                    <path d="M41,130 L32.4643463,178.434295 C32.4067025,178.760326 32.1186238,178.998805 31.7809847,179 L26,179 L26.4541596,133.107216" id="Path" fill="#3D5EA5"></path>
                    <path d="M41,130 L28,133.831495 L30.2336627,148 C30.2336627,148 30.3704176,143.353203 32.251833,143.141985 C34.1332483,142.930767 39.0729997,141.029805 39.0729997,141.029805 L41,130 Z" id="Path" fill="url(#linearGradient-1)"></path>
                    <path d="M26,179 L26,185.531483 C25.9989464,185.920565 26.1425631,186.2941 26.3991501,186.569624 C26.6557372,186.845147 27.0041937,187 27.367592,187 L34.4327891,187 C34.6968166,186.998511 34.9253504,186.803129 34.9851361,186.527778 C35.0449218,186.252428 34.9203177,185.969149 34.6839784,185.843116 L31.4942732,184.169691 C31.07514,183.946859 30.8359359,183.462139 30.9001905,182.965848 L31.430479,179" id="Path" fill="#63B5CE"></path>
                    <path d="M18.455061,133.1189 L18,179 L23.6436065,179 C24.0632218,178.99272 24.4192382,178.696821 24.4941877,178.293049 L33,130" id="Path" fill="#4C68B0"></path>
                    <path d="M19,133.133978 L19,162 C19,162 19,144.545834 23.6121973,144.545834 C26.28582,144.587031 28.8845535,143.642135 30.9328859,141.884043 L30.9328859,141.884043 L33,130 L19,133.133978 Z" id="Path" fill="url(#linearGradient-2)"></path>
                    <path d="M35.985007,15.9806639 C36.0187412,15.0266344 35.985007,14.4251811 35.985007,14.4251811 L23.6340778,8 L19.5901921,20.4355667 L19.9697017,23.7995576 L12,34.1155197 C13.2270811,33.903974 16.3770108,35.1898398 19.349836,37.2638169 C20.5886893,38.1262212 22.2122183,38.2396177 23.562519,37.5580548 C24.9128198,36.8764918 25.7659514,35.5130032 25.7761987,34.0201167 L25.7761987,34.0201167 L25.7298141,28.2129808 C26.1514915,23.8949605 28.6056536,30.7515288 32.4513509,26.6989776 C33.2098834,25.87656 33.8292034,24.9396333 34.2856474,23.9239962 C34.3891747,23.7023723 34.584047,23.5348305 34.8211776,23.4635733 L34.981415,23.4137978 C35.5870228,23.233908 36.0004066,22.6838511 35.9976573,22.0615648 L35.9976573,15.96822 L35.985007,15.9806639 Z" id="Path" fill="#F9AA8F"></path>
                    <path d="M35.9780863,14.4533138 L29.3102479,11 L22.0523353,12.9084102 L19.5866682,20.4387822 L19.9660016,23.788827 L12,34.0413686 L12,34.0413686 C13.2644447,33.8306999 16.4550601,35.144281 19.4560089,37.2550984 L19.4560089,37.2550984 C22.220928,39.0808935 24.0248691,37.1807448 21.5634167,35.5119185 C19.1019644,33.8430922 19.4560089,32.6203878 21.3484611,31.8933744 C23.2409133,31.166361 25.3230323,28.8696595 25.7571583,27.7626163 L25.7571583,27.7626163 C26.0774843,25.8542061 26.9836696,26.9984261 28.3745588,27.6552166 L28.6611663,27.7584856 C27.9699365,27.4238942 25.1712989,26.6514424 24.7961803,23.6607735 C24.1808172,18.7369099 32.3449152,16.6384848 33.858034,20.0298372 C34.9075231,22.3595847 34.3638119,23.5905506 34.0139822,24.4001792 C34.0982785,24.2349489 34.1867896,24.0738493 34.2626563,23.908619 C34.3661355,23.6879139 34.5609174,23.5210667 34.7979379,23.4501049 L34.9581009,23.4005358 C35.2035489,23.3341486 35.4262756,23.2043191 35.6029677,23.0246368 C35.5954295,22.9385097 35.644533,22.8571964 35.7251973,22.8222296 C35.5018121,22.7520068 35.5439602,22.9750677 35.5228862,22.0580394 C35.4849528,20.2281136 33.9212562,18.3403571 34.8105823,18.2123036 C35.2987812,18.0712078 35.7162612,17.7577193 35.9823011,17.3324521 L35.9823011,15.9982173 L35.9823011,15.9982173 C36.0244492,15.0522737 35.9780863,14.4533138 35.9780863,14.4533138 Z" id="Path" fill="url(#linearGradient-3)"></path>
                    <path d="M34.8676903,3.03045883 C42.0392396,5.85120387 39.2085869,16.9276874 31.4928435,17.2456923 L31.0034908,17.2456923 C21.7606293,17.2456923 22.4102873,22.5856972 22.1445181,25.4312218 C21.9209345,27.6696462 20.8409836,29.6107152 17.5462894,30.4986511 C14.972721,31.2254073 12.6656048,32.6585596 10.8978414,34.6285853 L10.5434825,35.0126691 C5.48543096,40.4930918 -3.31870044,33.513503 1.29640246,27.6696462 C2.1147864,26.6410617 3.18986255,25.8360485 4.41813568,25.3321034 C16.5886767,20.210985 3.28334347,-9.42542266 34.8676903,3.03045883 Z" id="Path" fill="#1B1C37"></path>
                    <path d="M26.1490463,8.30358503 C20.4292558,7.05304512 17.0409928,6.63619848 16.1226393,4.23099338 C15.0659038,1.47980557 18.8818931,0.054190063 19.0202751,0 L19.0202751,0 L18.8483459,0.054190063 C18.7183507,0.0917062604 18.5883555,0.125053991 18.466747,0.166738655 L18.2444971,0.24177105 L17.9090255,0.366825042 L17.6867756,0.471036701 L17.351304,0.625269957 L17.1751814,0.712807751 C17.0214236,0.793398101 16.8704614,0.876767429 16.7222948,0.962915734 L16.5419788,1.07546433 L16.3406959,1.20885525 L16.2652148,1.25887685 L16.0807054,1.39643624 C15.9926441,1.45896323 15.9087762,1.5256587 15.8249083,1.59235416 L15.6613659,1.72157662 L15.4516962,1.9091576 L15.2965406,2.05088546 L15.1581585,2.18844485 C15.0826774,2.26764571 15.0030029,2.34267811 14.9317152,2.42604743 L14.7765596,2.59695456 C14.7094653,2.67615542 14.642371,2.75118781 14.57947,2.83038867 L14.4368946,3.00546426 L14.3152862,3.17220292 C14.2775456,3.22222451 14.2398051,3.26807764 14.2062579,3.31809924 L14.0469089,3.54736489 L14.0091684,3.60989189 L13.8540127,3.843326 L13.7282109,4.04758086 C13.6778902,4.13511865 13.6275694,4.22265644 13.5814421,4.31019424 C13.5353147,4.39773203 13.4975742,4.4519221 13.4598336,4.52278602 L13.3088714,4.81874714 C13.2627441,4.9104534 13.2166167,4.99799119 13.1746828,5.08969745 L13.0111404,5.47319636 L12.9104989,5.71079894 C12.8727584,5.8025052 12.8308244,5.89421146 12.7930839,5.99008619 C12.7553433,6.08596092 12.7259895,6.15682484 12.6966358,6.24019417 C12.667282,6.3235635 12.6211547,6.43194363 12.5876075,6.52781835 L12.4995462,6.7695894 L12.4114849,7.01969739 C12.3863246,7.09889825 12.3569708,7.17809911 12.3318104,7.25729997 L12.2437491,7.53241875 C12.2143954,7.62412501 12.189235,7.71583127 12.1598812,7.80753753 L12.07182,8.09933018 L11.9963388,8.36611203 L11.912471,8.66207314 C11.8873106,8.7537794 11.8663436,8.84548566 11.8411832,8.93719192 C11.7908625,9.12477291 11.7447352,9.31652236 11.6986078,9.50410335 C11.6776408,9.57913574 11.6608673,9.64999967 11.6440937,9.72503207 L11.5434522,10.0585094 C11.5434522,10.1043625 11.5224852,10.1460472 11.5140984,10.1877318 L11.5140984,10.2585958 L11.4260372,10.6462631 L11.4260372,10.6462631 C11.2205608,11.5508203 11.0360514,12.4720514 10.8473487,13.389114 C10.7718676,13.7601075 10.6921931,14.131101 10.616712,14.4979261 C10.616712,14.5229369 10.616712,14.5479477 10.616712,14.5729585 C10.5286507,14.9898051 10.436396,15.4066517 10.3441413,15.8234984 L10.3441413,15.8234984 C10.3105941,15.9693947 10.277047,16.1111226 10.2393064,16.240345 C10.2015659,16.3695675 10.1847923,16.4696107 10.1596319,16.5821593 C10.1344716,16.6947079 10.0799574,16.8864573 10.0422169,17.0365221 L10.0422169,17.0365221 C10.0337826,17.0625233 10.0267832,17.0889629 10.0212499,17.115723 L10.0212499,17.115723 L9.94576879,17.3866733 C9.91222164,17.5033903 9.88286787,17.6242759 9.84932071,17.7409929 L9.84932071,17.7409929 L9.65642455,18.3079043 L9.65642455,18.3079043 C9.60191042,18.4829799 9.54320289,18.662224 9.48449537,18.8372996 L9.48449537,18.8831527 L9.48449537,18.8831527 C9.32933976,19.3458525 9.16160397,19.7918784 8.9770946,20.2253989 L8.9770946,20.2253989 C8.97847122,20.2350772 8.97847122,20.2448999 8.9770946,20.2545781 C8.67679987,20.9724642 8.308942,21.6605399 7.87842516,22.3096321 L7.87842516,22.3096321 C7.8490714,22.3554852 7.81552424,22.3971699 7.78197708,22.443023 C7.74842992,22.4888761 7.64359505,22.6431094 7.57230734,22.7389841 L7.57230734,22.7389841 C7.46747247,22.8765435 7.3584442,23.0141029 7.24522255,23.1558307 L7.24522255,23.1558307 L7.14038768,23.2308631 L7.14038768,23.2308631 L7.09006694,23.2850532 C6.98103867,23.4059387 6.86781701,23.5268243 6.75040196,23.6435413 L6.75040196,23.6435413 C6.65814727,23.7352476 6.56169919,23.8227854 6.46525111,23.9061547 L6.46525111,23.9061547 L6.36460964,23.997861 L6.36460964,23.997861 C6.2346144,24.1104095 6.10042577,24.2187897 5.94527016,24.3230013 L5.94527016,24.3230013 L5.88236924,24.3688545 L5.88236924,24.3688545 L5.51335049,24.6231309 L5.51335049,24.6231309 C5.27221705,24.7752431 5.02305121,24.9143917 4.76692622,25.0399776 C4.64531777,25.0983361 4.52370932,25.1608631 4.39371408,25.2150531 L4.39371408,25.2150531 C4.137917,25.3276017 3.8947001,25.4484873 3.65986999,25.5777097 L3.54245494,25.6402367 C3.32439841,25.7652907 3.12311546,25.8986816 2.91344572,26.0570833 L2.80022406,26.1404527 C2.6073279,26.2821805 2.42281853,26.4280769 2.25088934,26.5781416 L2.21314879,26.6073209 L2.17960163,26.6448371 C2.00767245,26.7990704 1.84413005,26.9616406 1.68897444,27.1283792 L1.62607352,27.1950747 C1.4793047,27.3576449 1.34511607,27.528552 1.20673404,27.6994591 C1.13963972,27.7911654 1.0767388,27.8870401 1.01383788,27.9787464 C0.950936956,28.0704526 0.892229429,28.1538219 0.837715297,28.2413597 C-2.66376936,33.9813379 5.63915234,40.3299122 10.4825233,34.9859383 L10.93541,34.4857224 C11.1241127,34.2772991 11.3170089,34.0688757 11.5182918,33.8854632 L11.5182918,33.8854632 L11.5434522,33.8646209 C11.711188,33.7062192 11.8789238,33.5478174 12.0550464,33.3977526 L12.0173058,33.3977526 C10.4322026,34.6024394 8.99386818,35.2527202 7.08587354,33.0059168 C5.17787891,30.7591134 8.004227,25.2859171 15.1371916,26.7532172 C22.2701561,28.2205174 21.9598449,23.6893944 21.9598449,23.6893944 L22.1401609,23.5268243 L22.1401609,23.5268243 C22.1401609,23.3642541 22.1695146,23.1933469 22.1904816,23.0266083 C22.1904816,23.005766 22.1904816,22.9807552 22.1904816,22.9599128 C22.2392693,22.5384272 22.3163196,22.1206509 22.4211183,21.7093729 L22.4211183,21.7093729 C22.4192189,21.6830064 22.4192189,21.6565386 22.4211183,21.6301721 L22.4211183,21.6301721 C22.4462787,21.5342973 22.471439,21.4425911 22.5007928,21.3508848 L22.5007928,21.3508848 L22.5007928,21.3300425 C22.5385334,21.2133254 22.5762739,21.1007768 22.6224013,20.9840598 L22.651755,20.9048589 L22.651755,20.9048589 C22.6894956,20.8131526 22.7272361,20.7214464 22.7691701,20.6339086 L22.7691701,20.6339086 L22.7691701,20.5963924 C22.8194908,20.4921807 22.8698116,20.3879691 22.9285191,20.2795889 L22.9285191,20.2795889 L22.970453,20.208725 L22.970453,20.208725 C23.0207738,20.1170188 23.0794813,20.0253125 23.1381888,19.9336062 L23.1381888,19.9336062 L23.1381888,19.9127639 C23.2094765,19.8043838 23.2849576,19.6960037 23.3688255,19.591792 L23.3688255,19.591792 L23.4023727,19.5501073 L23.4023727,19.5501073 C23.8810792,18.9544409 24.4831969,18.4682174 25.1677919,18.1244918 L25.1677919,18.1244918 C20.0770106,20.092008 18.0432141,17.4992219 20.3621615,15.1148591 C22.6811088,12.7304963 31.881417,9.56663034 26.1490463,8.30358503 Z" id="Path" fill="#1A172E"></path>
                    <path d="M56.8384368,120.771575 C58.9024451,128.809038 40.7358295,137.417943 28.3141764,135.802997 C22.4396912,135.041074 17.6933078,133.537932 16.4649304,131.662109 C12.6335627,125.757204 18.1361921,87.0978759 13.0597345,62.9233734 C12.8090452,61.7335583 12.5792467,60.5961945 12.370339,59.5112819 C12.3076667,59.2007153 12.2491725,58.8942897 12.1906784,58.5920049 C12.1071153,58.1641131 12.0277304,57.7500244 11.9525236,57.3497385 C11.8982076,57.0640173 11.8480697,56.778296 11.7979319,56.5008566 C11.3801164,54.2689181 11.0667548,52.2854329 10.8077093,50.5214147 C10.7450369,50.0783397 10.6865428,49.6518283 10.6280486,49.2377395 C10.4609224,47.9954732 10.3313996,46.8691517 10.2102332,45.8546342 C10.1768079,45.5150814 10.1475609,45.1920922 10.1183138,44.8773847 C10.0472851,44.0492072 10.1183138,43.320411 10.0639978,42.653728 C10.0639978,42.4301201 10.1350264,42.2106531 10.1350264,42.0036087 L10.1350264,42.0036087 C9.71721095,37.8875663 10.4024283,36.8771897 10.4024283,36.8771897 C10.4024283,36.8771897 16.5944532,21.7588086 25.0343251,33.4112667 C33.8293402,45.5771948 40.8402834,40.7861877 40.8402834,47.1465912 C40.8402834,48.9685818 39.7664977,50.4593014 41.4461158,53.3247957 C42.1605802,54.5339349 43.3638887,55.9915274 45.3610465,57.8217997 C47.4078111,59.70422 49.2213401,61.8212881 50.7634002,64.1283717 C51.2838084,64.8376259 51.7489299,65.5851496 52.1547256,66.3644511 C61.7519464,86.5844058 51.7410883,100.928441 56.8384368,120.771575 Z" id="Path" fill="#BDE2F4"></path>
                    <path d="M25.1573611,128.547028 C20.306602,136.332034 34.6583312,135.135619 35.0719618,135.102385 C33.1266654,135.61668 31.1297099,135.913467 29.1181877,135.987233 C23.5529757,136.165865 18.9737922,134.454327 17.2691327,131.833015 C15.8318708,129.606354 15.9822819,126.120964 15.8820078,123.599354 C15.6856377,118.67245 15.8360488,113.733084 15.9363229,108.806181 C16.1828301,96.4930771 16.5463237,84.0968888 15.2302262,71.8336355 C14.306869,63.2260946 12.05488,54.8470356 11.1064543,46.2353405 C10.7471388,42.9742789 11.3487833,40.3488127 12.1426199,37.2331488 L20.0809853,33 C20.0809853,33 25.8383893,36.6266328 27.1586648,42.2639075 C28.1321591,46.3516586 36.6679911,48.1213557 38.247308,46.0027042 C38.5439522,45.5872824 40.0062826,46.1979525 41.6273804,47.0661842 C41.6273804,48.8940404 40.5619682,50.3895591 42.2415592,53.2642783 C41.9490931,53.0316421 34.1820292,46.8584733 32.3186024,55.3746214 C30.4175728,64.0486298 46.0310842,63.6082827 46.0310842,63.6082827 L51.5628715,64.1026347 L56,64.4972854 C56,64.4972854 54.7758205,65.1494978 52.9583526,66.3459127 C48.1953333,69.4781935 39.3795696,76.3451169 38.0133351,84.9609663 C36.1206616,96.8669568 44.9238911,99.9784665 53.986162,103.318458 C63.0484329,106.65845 30.0791477,120.649858 25.1573611,128.547028 Z" id="Path" fill="url(#linearGradient-4)"></path>
                    <path d="M47,63.8825807 C47,63.8825807 49.5810038,61.2895809 50.9351075,58.9846923 C52.2892112,56.6798037 54.7963548,58.9095329 56.2694555,60.6966567 C57.7425562,62.4837805 56.7495468,65.9077093 55.3913397,64.7594405 C55.3913397,64.7594405 50.5904265,68.2835818 47.845289,66.4922825" id="Path" fill="#F9AA8F"></path>
                    <path d="M47.3147269,67.0037127 L46.69119,67.3196988 C27.1550792,77.1193691 4.90596373,83.2954595 3.17988165,66.6097562 C1.60658673,51.3480417 10.8151108,36.3735874 12.8508966,33.287594 L12.9128373,33.1973123 L13.0202013,33.0372674 L13.2473173,32.7048666 C13.3464225,32.6433108 13.4496571,32.5858588 13.5487623,32.5366143 C13.6478675,32.4873697 13.7428433,32.4340214 13.8419485,32.3888805 C14.5539852,32.0099344 15.3810507,31.9033616 16.1667911,32.0893094 C20.2466215,33.2096234 20.8123469,44.3224824 15.7868879,58.6321351 C10.0924687,74.8294964 44.7545094,63.4211699 46.0841707,63.4211699 C46.8770123,63.4211699 47.5170666,64.5250692 47.8969699,65.4114715 C48.159618,66.0116479 47.9038309,66.7111408 47.3147269,67.0037127 Z" id="Path" fill="#BDE2F4"></path>
                    <path d="M19,179 L19,185.531483 C19,186.342522 19.6138036,187 20.3709688,187 L27.4290667,187 C27.6937201,187.000481 27.9238586,186.805744 27.9846866,186.529849 C28.0455146,186.253954 27.9210239,185.969508 27.6841307,185.843116 L24.4958312,184.16969 C24.0766099,183.947543 23.8385173,183.461601 23.9059958,182.965848 L24.4320652,179" id="Path" fill="#89C7E0"></path>
                    <path d="M48,66.8269199 L47.3668209,67.1484944 C27.528608,77.1214803 4.93543713,83.4068001 3.1826633,66.4259958 C1.5850393,50.894365 10.9359619,35.6550746 13.0032287,32.5145029 L13.0661272,32.4226244 L13.1751514,32.259749 L13.4057796,31.9214694 C13.5064173,31.858825 13.6112483,31.8003569 13.711886,31.7502414 C13.8125238,31.7001259 13.9089682,31.6458341 14.009606,31.5998949 C15.1392807,30.9863963 16.4648541,30.836542 17.7038494,31.1822656 C17.2558761,31.1222935 16.8000909,31.1636909 16.3703994,31.3033781 C16.1606175,31.3673079 15.9559678,31.4468825 15.7581866,31.5414268 C12.4035955,33.1367704 6.82658785,55.5718123 12.6971222,66.4343484 C19.2972802,78.6416506 42.6158813,68.100689 48,66.8269199 Z" id="Path" fill="url(#linearGradient-5)"></path>
                </g>
            </g>
        </g>
    </g>
</svg>