<?xml version="1.0" encoding="UTF-8"?>
<svg width="20px" height="18px" viewBox="0 0 20 18" version="1.1" xmlns="http://www.w3.org/2000/svg" xmlns:xlink="http://www.w3.org/1999/xlink">
    <!-- Generator: sketchtool 59.1 (101010) - https://sketch.com -->
    <title>2A5604BB-09DE-4113-98DF-7D76A911C711</title>
    <desc>Created with sketchtool.</desc>
    <g id="main" stroke="none" stroke-width="1" fill="none" fill-rule="evenodd">
        <g id="Homepage---Account-Owner-popover" transform="translate(-19.000000, -97.000000)" fill="#0192D4" fill-rule="nonzero">
            <g id="nav-item/default-copy-2" transform="translate(0.000000, 88.000000)">
                <g id="home-icon/active" transform="translate(19.000000, 9.000000)">
                    <path d="M19.7877193,7.05902534 L10.3258869,0.131267057 C10.1434308,-0.00230019493 9.89555556,-0.00230019493 9.71317739,0.131267057 L0.251267057,7.05902534 C0.0201559454,7.22826511 -0.0300584795,7.55278752 0.139181287,7.78389864 C0.308421053,8.01500975 0.632982456,8.0651462 0.864054581,7.89598441 L10.0194932,1.19251462 L19.1749318,7.89594542 C19.2672515,7.96358674 19.3745419,7.99616819 19.4808967,7.99616819 C19.6405848,7.99616819 19.7981676,7.92265107 19.8997661,7.78385965 C20.0690448,7.55278752 20.0188304,7.22826511 19.7877193,7.05902534 Z" id="Path"></path>
                    <path d="M17.2805458,8.01337232 C16.994152,8.01337232 16.7619103,8.24557505 16.7619103,8.5320078 L16.7619103,16.7873294 L12.6129045,16.7873294 L12.6129045,12.2810526 C12.6129045,10.8510331 11.4494737,9.68768031 10.0195322,9.68768031 C8.58959064,9.68768031 7.42615984,10.8511111 7.42615984,12.2810526 L7.42615984,16.7873684 L3.27711501,16.7873684 L3.27711501,8.53204678 C3.27711501,8.24561404 3.04487329,8.01337232 2.75847953,8.01337232 C2.47208577,8.01337232 2.23984405,8.24561404 2.23984405,8.53204678 L2.23984405,17.3060429 C2.23984405,17.5924756 2.47208577,17.8246784 2.75847953,17.8246784 L7.94479532,17.8246784 C8.21754386,17.8246784 8.44074074,17.6139571 8.46140351,17.3464327 C8.46265107,17.334308 8.4634308,17.3210526 8.4634308,17.3060429 L8.4634308,12.2810916 C8.4634308,11.4230409 9.16148148,10.7249903 10.0195322,10.7249903 C10.8775828,10.7249903 11.5756335,11.4230799 11.5756335,12.2810916 L11.5756335,17.3060429 C11.5756335,17.3209747 11.5764133,17.3339961 11.5776608,17.3459649 C11.5980897,17.6136842 11.8213645,17.8246784 12.094269,17.8246784 L17.2805848,17.8246784 C17.5670175,17.8246784 17.7992203,17.5924756 17.7992203,17.3060429 L17.7992203,8.53204678 C17.7992203,8.24557505 17.5669786,8.01337232 17.2805458,8.01337232 Z" id="Path"></path>
                </g>
            </g>
        </g>
    </g>
</svg>