<?xml version="1.0" encoding="UTF-8"?>
<svg width="11px" height="20px" viewBox="0 0 11 20" version="1.1" xmlns="http://www.w3.org/2000/svg" xmlns:xlink="http://www.w3.org/1999/xlink">
    <!-- Generator: sketchtool 59.1 (101010) - https://sketch.com -->
    <title>63481DB6-4713-469A-B60D-280AFE087AD3</title>
    <desc>Created with sketchtool.</desc>
    <g id="main" stroke="none" stroke-width="1" fill="none" fill-rule="evenodd">
        <g id="Homepage---Account-Owner-popover" transform="translate(-24.000000, -168.000000)" fill="#3A484F" fill-rule="nonzero">
            <g id="nav-item/default" transform="translate(0.000000, 160.000000)">
                <g id="newborn-icon/default" transform="translate(24.000000, 8.000000)">
                    <path d="M10.3314062,4.15816406 C9.92304687,2.49859375 8.68734375,1.1615625 7.08902344,0.612890625 C7.09878906,0.396132812 6.98800781,0.182382812 6.7846875,0.0715625 C6.50058594,-0.08328125 6.14464844,0.021484375 5.98976562,0.305625 L5.95617187,0.367226562 C5.8371875,0.355664062 5.71703125,0.348085937 5.59578125,0.345039062 C5.54511719,0.232695312 5.459375,0.135078125 5.3428125,0.0715625 C5.05871094,-0.08328125 4.70277344,0.021484375 4.54789062,0.305625 L4.47292969,0.443164062 C2.57691406,0.827734375 1.06636719,2.28820312 0.606210937,4.15808594 C0.220898437,4.90628906 0.0031640625,5.75425781 0.0031640625,6.6521875 L0.0031640625,14.5344141 C0.0031640625,17.548125 2.455,20.0000048 5.46875,20.0000048 C8.4825,20.0000048 10.934336,17.548125 10.934336,14.5344141 L10.934336,6.65222656 C10.9344531,5.75429687 10.7167187,4.90632812 10.3314062,4.15816406 Z M3.86238281,1.86898438 C3.89824219,2.02761719 3.99898438,2.17074219 4.15296875,2.2546875 C4.24203125,2.30320312 4.338125,2.32625 4.43289063,2.32625 C4.64042969,2.32625 4.8415625,2.21570313 4.94789063,2.020625 L5.21871094,1.52375 C5.25675781,1.52128906 5.29492188,1.519375 5.33324219,1.51800781 C5.22101563,1.79089844 5.32980469,2.11019531 5.59484375,2.2546875 C5.68390625,2.30320313 5.78,2.32625 5.87476562,2.32625 C6.08230469,2.32625 6.2834375,2.21570313 6.38976562,2.020625 L6.57609375,1.67878906 C8.15304687,2.15585938 9.30476562,3.62433594 9.30476562,5.35738281 C9.30476562,7.47585937 7.58398437,9.19933594 5.46894531,9.19933594 C3.35386719,9.19933594 1.633125,7.47582031 1.633125,5.35738281 C1.63304688,3.81304687 2.54746094,2.47886719 3.86238281,1.86898438 Z M1.17511719,14.5344531 L1.17511719,7.93488281 C2.05179688,9.39339844 3.64835938,10.37125 5.46882812,10.37125 C7.289375,10.37125 8.88589844,9.3934375 9.76253906,7.93488281 L9.76253906,8.90105469 L8.3828125,10.6411328 C6.58699219,12.9059375 4.03515625,14.35125 1.17964844,14.7273828 C1.17679688,14.6634375 1.17511719,14.5991406 1.17511719,14.5344531 Z M9.76257813,14.5344531 C9.76257813,16.9020313 7.83640625,18.8281641 5.46886719,18.8281641 C3.57171875,18.8281641 1.95828125,17.5913281 1.391875,15.8817188 C2.895,15.6761328 4.32949219,15.1984766 5.6596875,14.4596484 C7.07183594,13.6753125 8.29695313,12.6355469 9.30105469,11.3691797 L9.76257813,10.7871094 L9.76257813,14.5344531 Z" id="Shape"></path>
                    <path d="M4.36304687,4.15398437 C4.18296875,4.05566406 3.97402344,4.06167969 3.80558594,4.15167969 C3.6371875,4.06171875 3.42816406,4.05574219 3.248125,4.15398437 C2.96410156,4.30910156 2.85957031,4.66503906 3.01460937,4.9490625 C3.17269531,5.23859375 3.47578125,5.41847656 3.80554687,5.41847656 C4.1353125,5.41847656 4.43847656,5.23859375 4.5965625,4.9490625 C4.75164062,4.66503906 4.64707031,4.3090625 4.36304687,4.15398437 Z" id="Path"></path>
                    <path d="M7.68949219,4.15398437 C7.50941406,4.05566406 7.30046875,4.06167969 7.13203125,4.15167969 C6.96363281,4.06171875 6.75464844,4.05574219 6.57457031,4.15398437 C6.29054687,4.30910156 6.18601562,4.66503906 6.34105469,4.9490625 C6.49914062,5.23859375 6.80222656,5.41847656 7.13199219,5.41847656 C7.46175781,5.41847656 7.76484375,5.23863281 7.92292969,4.9490625 C8.07804688,4.66503906 7.97351563,4.3090625 7.68949219,4.15398437 Z" id="Path"></path>
                    <path d="M7.1128125,6.79851563 C6.96015625,6.51324219 6.60511719,6.405625 6.31976562,6.55828125 C5.78695313,6.84332031 5.15074219,6.84332031 4.61796875,6.55828125 C4.33257812,6.40566406 3.97757812,6.51320313 3.82492187,6.79851563 C3.67226563,7.08386719 3.77984375,7.43894531 4.06515625,7.59160156 C4.50460938,7.82671875 4.98671875,7.94425781 5.46886719,7.94425781 C5.95101563,7.94425781 6.43308594,7.82667969 6.87257813,7.59160156 C7.15792969,7.43894531 7.26550781,7.08386719 7.1128125,6.79851563 Z" id="Path"></path>
                </g>
            </g>
        </g>
    </g>
</svg>