<?xml version="1.0" encoding="UTF-8"?>
<svg width="13px" height="22px" viewBox="0 0 13 22" version="1.1" xmlns="http://www.w3.org/2000/svg" xmlns:xlink="http://www.w3.org/1999/xlink">
    <!-- Generator: sketchtool 59.1 (101010) - https://sketch.com -->
    <title>C622D1C3-7D2B-4996-8D0E-7474C78075F1</title>
    <desc>Created with sketchtool.</desc>
    <g id="main" stroke="none" stroke-width="1" fill="none" fill-rule="evenodd">
        <g id="Homepage---Account-Owner-popover" transform="translate(-23.000000, -203.000000)" fill="#3A484F" fill-rule="nonzero">
            <g id="nav-item/default-copy-3" transform="translate(0.000000, 196.000000)">
                <g id="nutrition-icon/default" transform="translate(23.000000, 7.000000)">
                    <path d="M11.0422813,8.3765 L11.0422813,6.1875 C11.0422813,5.808 10.7342812,5.5 10.3547812,5.5 L10.1581562,5.5 C9.81303125,4.56775 9.16403125,3.7785 8.29228125,3.2945 L8.29228125,2.0625 C8.29228125,0.925375 7.36690625,0 6.22978125,0 C5.09265625,0 4.16728125,0.925375 4.16728125,2.0625 L4.16728125,3.2945 C3.29553125,3.7785 2.64653125,4.56775 2.30140625,5.5 L2.10478125,5.5 C1.72528125,5.5 1.41728125,5.808 1.41728125,6.1875 L1.41728125,8.3765 C0.61840625,8.661125 0.04228125,9.417375 0.04228125,10.3125 L0.04228125,19.936125 C0.04228125,21.07325 0.96765625,21.998625 2.10478125,21.998625 L10.3547813,21.998625 C11.4919063,21.998625 12.4172813,21.07325 12.4172813,19.936125 L12.4172813,10.3125 C12.4172813,9.417375 11.8411563,8.661125 11.0422813,8.3765 Z M5.11740625,4.3615 C5.37453125,4.255625 5.54228125,4.004 5.54228125,3.72625 L5.54228125,2.0625 C5.54228125,1.684375 5.85028125,1.375 6.22978125,1.375 C6.60928125,1.375 6.91728125,1.684375 6.91728125,2.0625 L6.91728125,3.72625 C6.91728125,4.004 7.08503125,4.255625 7.34215625,4.3615 C7.89628125,4.58975 8.33903125,4.9995 8.64290625,5.5 L3.81665625,5.5 C4.12053125,4.9995 4.56328125,4.58975 5.11740625,4.3615 Z M2.79228125,6.875 L9.66728125,6.875 L9.66728125,8.25 L2.79228125,8.25 L2.79228125,6.875 Z M11.0422813,19.936125 C11.0422813,20.31425 10.7342813,20.623625 10.3547813,20.623625 L2.10478125,20.623625 C1.72528125,20.623625 1.41728125,20.31425 1.41728125,19.936125 L1.41728125,10.3125 C1.41728125,9.934375 1.72528125,9.625 2.10478125,9.625 L10.3547813,9.625 C10.7342813,9.625 11.0422813,9.934375 11.0422813,10.3125 L11.0422813,19.936125 Z" id="Shape"></path>
                </g>
            </g>
        </g>
    </g>
</svg>