<?xml version="1.0" encoding="UTF-8"?>
<svg width="17px" height="22px" viewBox="0 0 17 22" version="1.1" xmlns="http://www.w3.org/2000/svg" xmlns:xlink="http://www.w3.org/1999/xlink">
    <!-- Generator: sketchtool 59.1 (101010) - https://sketch.com -->
    <title>84025A14-377C-43FF-96E0-03830482DF5A</title>
    <desc>Created with sketchtool.</desc>
    <g id="main" stroke="none" stroke-width="1" fill="none" fill-rule="evenodd">
        <g id="Homepage---Account-Owner-popover" transform="translate(-22.000000, -131.000000)" fill="#3A484F" fill-rule="nonzero">
            <g id="nav-item/default-copy" transform="translate(0.000000, 124.000000)">
                <g id="pregnanncy-icon/default" transform="translate(22.000000, 7.000000)">
                    <path d="M11.9902077,7.48711625 C12.5741807,7.29396624 13.0968415,6.92542336 13.4766082,6.18515471 C13.9329313,5.29596128 13.9163468,4.49287281 13.4246771,3.65795565 C13.0093963,2.95320113 12.2604167,2.22080591 11.2236385,1.20714549 C10.540494,0.539245259 10.3917367,0.390152889 10.0017513,0 L4.58919653,0 L4.58919653,0.025462963 C4.04676839,0.0309910955 3.51321881,0.217272772 3.08235867,0.566383396 C2.70309454,0.873446659 2.42819506,1.28336683 2.28580347,1.75543678 L0.12580715,9.07670871 C-0.146076998,9.97846615 0.268031189,10.9386878 1.10830897,11.3586592 L2.71465338,12.1691186 C1.23863911,15.0797697 1.20630786,18.558647 2.68785026,21.5217318 L2.90512307,21.9564449 L13.938962,21.9564449 C15.021473,20.332846 16.8110837,18.2326541 16.8110837,14.8980111 C16.8110837,11.1226243 15.0445906,9.1326602 11.9902077,7.48711625 Z M1.35858311,9.44441396 L3.51857943,2.12314204 C3.58508466,1.90268642 3.7142422,1.71003899 3.89214788,1.56597222 C4.17927632,1.33345517 4.56272842,1.25338083 4.9180373,1.35221735 C5.58778021,1.53816401 5.93387551,2.26888402 5.66349903,2.8995949 L2.8434759,9.38628473 L9.88683298,12.908047 C10.6905915,12.908047 11.6925256,12.9603131 12.4493787,13.3521412 L11.8024184,13.5911915 C10.8478923,13.9441551 10.0664139,14.1532194 9.57390657,14.1890686 L1.68574867,10.208973 C1.404986,10.0687591 1.26694994,9.74862936 1.35858311,9.44441396 Z M13.2546449,20.6698952 L3.70603376,20.6698952 C2.54344848,18.1344877 2.61481176,15.2097648 3.86366959,12.7489035 L9.2787372,15.4809789 C10.2602339,15.4809789 11.2819353,15.1551535 12.2485228,14.7978344 L14.4438658,13.9862025 L14.1972771,13.3260082 C14.1331171,13.1543007 13.4814662,11.6677327 10.192556,11.6225024 L4.50945725,8.78103677 L6.84467898,3.40952423 C7.13783807,2.72520712 7.10182137,1.9428911 6.74265958,1.28654971 L9.4693744,1.28654971 C9.77576754,1.59093262 10.0644036,1.87320299 10.3242264,2.1271625 C12.4659631,4.22115621 12.809043,4.66809818 12.3319475,5.59799889 C11.9645773,6.31397723 11.4648666,6.3705988 10.2694475,6.43978434 C9.90676777,6.46089181 9.94077423,6.42454009 9.22060792,6.47546602 L9.22060792,7.49733493 C9.71194263,7.75699012 9.75834552,7.78262059 10.3587354,8.08901378 C13.0152595,9.44474903 15.524534,10.7251005 15.524534,14.8981786 C15.524534,17.5833486 14.1485289,19.3776498 13.2546449,20.6698952 Z" id="Shape"></path>
                </g>
            </g>
        </g>
    </g>
</svg>